%TF.GenerationSoftware,KiCad,Pcbnew,10.0.2*%
%TF.CreationDate,2026-06-01T16:57:48+09:00*%
%TF.ProjectId,RPM,52504d2e-6b69-4636-9164-5f7063625858,rev?*%
%TF.SameCoordinates,Original*%
%TF.FileFunction,Paste,Top*%
%TF.FilePolarity,Positive*%
%FSLAX46Y46*%
G04 Gerber Fmt 4.6, Leading zero omitted, Abs format (unit mm)*
G04 Created by KiCad (PCBNEW 10.0.2) date 2026-06-01 16:57:48*
%MOMM*%
%LPD*%
G01*
G04 APERTURE LIST*
G04 Aperture macros list*
%AMRoundRect*
0 Rectangle with rounded corners*
0 $1 Rounding radius*
0 $2 $3 $4 $5 $6 $7 $8 $9 X,Y pos of 4 corners*
0 Add a 4 corners polygon primitive as box body*
4,1,4,$2,$3,$4,$5,$6,$7,$8,$9,$2,$3,0*
0 Add four circle primitives for the rounded corners*
1,1,$1+$1,$2,$3*
1,1,$1+$1,$4,$5*
1,1,$1+$1,$6,$7*
1,1,$1+$1,$8,$9*
0 Add four rect primitives between the rounded corners*
20,1,$1+$1,$2,$3,$4,$5,0*
20,1,$1+$1,$4,$5,$6,$7,0*
20,1,$1+$1,$6,$7,$8,$9,0*
20,1,$1+$1,$8,$9,$2,$3,0*%
G04 Aperture macros list end*
%ADD10RoundRect,0.090000X0.660000X0.360000X-0.660000X0.360000X-0.660000X-0.360000X0.660000X-0.360000X0*%
G04 APERTURE END LIST*
D10*
%TO.C,D5*%
X92350000Y-36650000D03*
X92350000Y-33350000D03*
X87450000Y-33350000D03*
X87450000Y-36650000D03*
%TD*%
%TO.C,D3*%
X108350000Y-36650000D03*
X108350000Y-33350000D03*
X103450000Y-33350000D03*
X103450000Y-36650000D03*
%TD*%
%TO.C,D4*%
X100350000Y-36650000D03*
X100350000Y-33350000D03*
X95450000Y-33350000D03*
X95450000Y-36650000D03*
%TD*%
%TO.C,D11*%
X44350000Y-36650000D03*
X44350000Y-33350000D03*
X39450000Y-33350000D03*
X39450000Y-36650000D03*
%TD*%
%TO.C,D8*%
X68350000Y-36650000D03*
X68350000Y-33350000D03*
X63450000Y-33350000D03*
X63450000Y-36650000D03*
%TD*%
%TO.C,D12*%
X36350000Y-36650000D03*
X36350000Y-33350000D03*
X31450000Y-33350000D03*
X31450000Y-36650000D03*
%TD*%
%TO.C,D1*%
X124350000Y-36650000D03*
X124350000Y-33350000D03*
X119450000Y-33350000D03*
X119450000Y-36650000D03*
%TD*%
%TO.C,D9*%
X60350000Y-36650000D03*
X60350000Y-33350000D03*
X55450000Y-33350000D03*
X55450000Y-36650000D03*
%TD*%
%TO.C,D10*%
X52350000Y-36650000D03*
X52350000Y-33350000D03*
X47450000Y-33350000D03*
X47450000Y-36650000D03*
%TD*%
%TO.C,D7*%
X76350000Y-36650000D03*
X76350000Y-33350000D03*
X71450000Y-33350000D03*
X71450000Y-36650000D03*
%TD*%
%TO.C,D2*%
X116350000Y-36650000D03*
X116350000Y-33350000D03*
X111450000Y-33350000D03*
X111450000Y-36650000D03*
%TD*%
%TO.C,D6*%
X84350000Y-36650000D03*
X84350000Y-33350000D03*
X79450000Y-33350000D03*
X79450000Y-36650000D03*
%TD*%
M02*
