%TF.GenerationSoftware,KiCad,Pcbnew,10.0.2*%
%TF.CreationDate,2026-06-01T16:57:48+09:00*%
%TF.ProjectId,RPM,52504d2e-6b69-4636-9164-5f7063625858,rev?*%
%TF.SameCoordinates,Original*%
%TF.FileFunction,Copper,L2,Bot*%
%TF.FilePolarity,Positive*%
%FSLAX46Y46*%
G04 Gerber Fmt 4.6, Leading zero omitted, Abs format (unit mm)*
G04 Created by KiCad (PCBNEW 10.0.2) date 2026-06-01 16:57:48*
%MOMM*%
%LPD*%
G01*
G04 APERTURE LIST*
G04 Aperture macros list*
%AMRoundRect*
0 Rectangle with rounded corners*
0 $1 Rounding radius*
0 $2 $3 $4 $5 $6 $7 $8 $9 X,Y pos of 4 corners*
0 Add a 4 corners polygon primitive as box body*
4,1,4,$2,$3,$4,$5,$6,$7,$8,$9,$2,$3,0*
0 Add four circle primitives for the rounded corners*
1,1,$1+$1,$2,$3*
1,1,$1+$1,$4,$5*
1,1,$1+$1,$6,$7*
1,1,$1+$1,$8,$9*
0 Add four rect primitives between the rounded corners*
20,1,$1+$1,$2,$3,$4,$5,0*
20,1,$1+$1,$4,$5,$6,$7,0*
20,1,$1+$1,$6,$7,$8,$9,0*
20,1,$1+$1,$8,$9,$2,$3,0*%
G04 Aperture macros list end*
%TA.AperFunction,SMDPad,CuDef*%
%ADD10RoundRect,0.250000X-0.350000X-0.450000X0.350000X-0.450000X0.350000X0.450000X-0.350000X0.450000X0*%
%TD*%
%TA.AperFunction,SMDPad,CuDef*%
%ADD11RoundRect,0.250000X0.412500X0.650000X-0.412500X0.650000X-0.412500X-0.650000X0.412500X-0.650000X0*%
%TD*%
%TA.AperFunction,SMDPad,CuDef*%
%ADD12R,1.000000X1.000000*%
%TD*%
%TA.AperFunction,SMDPad,CuDef*%
%ADD13RoundRect,0.162500X0.617500X0.162500X-0.617500X0.162500X-0.617500X-0.162500X0.617500X-0.162500X0*%
%TD*%
%TA.AperFunction,ViaPad*%
%ADD14C,0.600000*%
%TD*%
%TA.AperFunction,Conductor*%
%ADD15C,0.400000*%
%TD*%
%TA.AperFunction,Conductor*%
%ADD16C,0.200000*%
%TD*%
G04 APERTURE END LIST*
D10*
%TO.P,R1,1*%
%TO.N,/LED_Control*%
X117500000Y-38500000D03*
%TO.P,R1,2*%
%TO.N,Net-(R1-Pad2)*%
X119500000Y-38500000D03*
%TD*%
D11*
%TO.P,C2,1*%
%TO.N,+5V*%
X114500000Y-38000000D03*
%TO.P,C2,2*%
%TO.N,GND*%
X111375000Y-38000000D03*
%TD*%
D12*
%TO.P,REF\u002A\u002A,1*%
%TO.N,GND*%
X126500000Y-38000000D03*
%TD*%
D11*
%TO.P,C1,1*%
%TO.N,+5V*%
X114500000Y-33500000D03*
%TO.P,C1,2*%
%TO.N,GND*%
X111375000Y-33500000D03*
%TD*%
D12*
%TO.P,REF\u002A\u002A,1*%
%TO.N,+5V*%
X126500000Y-33000000D03*
%TD*%
D13*
%TO.P,U1,1*%
%TO.N,GND*%
X120000000Y-33550000D03*
%TO.P,U1,2*%
%TO.N,/GPIO_OUT*%
X120000000Y-34500000D03*
%TO.P,U1,3,GND_3*%
%TO.N,GND*%
X120000000Y-35450000D03*
%TO.P,U1,4*%
%TO.N,Net-(R1-Pad2)*%
X117300000Y-35450000D03*
%TO.P,U1,5,VCC_5*%
%TO.N,+5V*%
X117300000Y-33550000D03*
%TD*%
D12*
%TO.P,REF\u002A\u002A,1*%
%TO.N,/GPIO_OUT*%
X126500000Y-35500000D03*
%TD*%
D14*
%TO.N,+5V*%
X115500000Y-39000000D03*
X116250000Y-32250000D03*
%TO.N,GND*%
X110000000Y-35500000D03*
X125000000Y-39000000D03*
X106000000Y-36000000D03*
X110000000Y-32000000D03*
X106500000Y-38000000D03*
X99000000Y-38000000D03*
X122000000Y-33500000D03*
%TO.N,/LED_Control*%
X116500000Y-38000000D03*
%TD*%
%TO.N,+5V*%
D15*
X116250000Y-32250000D02*
X117300000Y-33300000D01*
X126500000Y-33000000D02*
X125500000Y-32000000D01*
D16*
X114550000Y-33550000D02*
X114500000Y-33500000D01*
D15*
X118850000Y-32000000D02*
X117300000Y-33550000D01*
X117300000Y-33300000D02*
X117300000Y-33550000D01*
X125500000Y-32000000D02*
X118850000Y-32000000D01*
X114500000Y-38000000D02*
X115500000Y-39000000D01*
X114500000Y-38000000D02*
X114500000Y-36350000D01*
X117300000Y-33550000D02*
X114550000Y-33550000D01*
X114500000Y-36350000D02*
X117300000Y-33550000D01*
%TO.N,GND*%
D16*
X122300000Y-33800000D02*
X122000000Y-33500000D01*
X120000000Y-33550000D02*
X119220001Y-33550000D01*
X118920000Y-34920000D02*
X119450000Y-35450000D01*
X119220001Y-33550000D02*
X118920000Y-33850001D01*
X127300000Y-34800000D02*
X126300000Y-33800000D01*
X126000000Y-38000000D02*
X125000000Y-39000000D01*
X127300000Y-37200000D02*
X127300000Y-34800000D01*
X119450000Y-35450000D02*
X120000000Y-35450000D01*
X126300000Y-33800000D02*
X122300000Y-33800000D01*
X118920000Y-33850001D02*
X118920000Y-34920000D01*
X126500000Y-38000000D02*
X126000000Y-38000000D01*
X126500000Y-38000000D02*
X127300000Y-37200000D01*
%TO.N,/LED_Control*%
X116500000Y-38000000D02*
X117000000Y-38000000D01*
X117000000Y-38000000D02*
X117500000Y-38500000D01*
%TO.N,Net-(R1-Pad2)*%
X119500000Y-37650000D02*
X117300000Y-35450000D01*
X119500000Y-38500000D02*
X119500000Y-37650000D01*
%TO.N,/GPIO_OUT*%
X125500000Y-34500000D02*
X120000000Y-34500000D01*
X126500000Y-35500000D02*
X125500000Y-34500000D01*
%TD*%
%TA.AperFunction,Conductor*%
%TO.N,GND*%
G36*
X115635098Y-31520185D02*
G01*
X115680853Y-31572989D01*
X115690797Y-31642147D01*
X115661772Y-31705703D01*
X115655740Y-31712181D01*
X115628213Y-31739707D01*
X115628210Y-31739711D01*
X115540609Y-31870814D01*
X115540602Y-31870827D01*
X115480264Y-32016498D01*
X115480261Y-32016507D01*
X115461587Y-32110387D01*
X115429201Y-32172297D01*
X115368485Y-32206871D01*
X115298716Y-32203130D01*
X115274876Y-32191734D01*
X115231834Y-32165186D01*
X115065297Y-32110001D01*
X115065295Y-32110000D01*
X114962510Y-32099500D01*
X114037498Y-32099500D01*
X114037480Y-32099501D01*
X113934703Y-32110000D01*
X113934700Y-32110001D01*
X113768168Y-32165185D01*
X113768163Y-32165187D01*
X113618842Y-32257289D01*
X113494789Y-32381342D01*
X113402687Y-32530663D01*
X113402685Y-32530668D01*
X113402615Y-32530880D01*
X113347501Y-32697203D01*
X113347501Y-32697204D01*
X113347500Y-32697204D01*
X113337000Y-32799983D01*
X113337000Y-34200001D01*
X113337001Y-34200018D01*
X113347500Y-34302796D01*
X113347501Y-34302799D01*
X113402685Y-34469331D01*
X113402687Y-34469336D01*
X113427365Y-34509346D01*
X113494788Y-34618656D01*
X113618844Y-34742712D01*
X113768166Y-34834814D01*
X113934703Y-34889999D01*
X114037491Y-34900500D01*
X114659481Y-34900499D01*
X114726519Y-34920183D01*
X114772274Y-34972987D01*
X114782218Y-35042146D01*
X114753193Y-35105702D01*
X114747161Y-35112180D01*
X113955887Y-35903454D01*
X113879222Y-36018192D01*
X113826421Y-36145667D01*
X113826418Y-36145679D01*
X113800597Y-36275491D01*
X113800596Y-36275498D01*
X113799501Y-36281001D01*
X113799500Y-36281011D01*
X113799500Y-36576652D01*
X113779815Y-36643691D01*
X113740598Y-36682189D01*
X113669551Y-36726012D01*
X113618842Y-36757289D01*
X113494789Y-36881342D01*
X113402687Y-37030663D01*
X113402685Y-37030668D01*
X113402615Y-37030880D01*
X113347501Y-37197203D01*
X113347501Y-37197204D01*
X113347500Y-37197204D01*
X113337000Y-37299983D01*
X113337000Y-38700001D01*
X113337001Y-38700018D01*
X113347500Y-38802796D01*
X113347501Y-38802799D01*
X113394076Y-38943350D01*
X113402686Y-38969334D01*
X113494596Y-39118345D01*
X113494789Y-39118657D01*
X113618844Y-39242712D01*
X113663022Y-39269961D01*
X113709747Y-39321909D01*
X113720970Y-39390871D01*
X113693127Y-39454953D01*
X113635058Y-39493810D01*
X113597926Y-39499500D01*
X112276122Y-39499500D01*
X112209083Y-39479815D01*
X112163328Y-39427011D01*
X112153384Y-39357853D01*
X112182409Y-39294297D01*
X112211025Y-39269961D01*
X112255845Y-39242315D01*
X112379815Y-39118345D01*
X112471856Y-38969124D01*
X112471858Y-38969119D01*
X112527005Y-38802697D01*
X112527006Y-38802690D01*
X112537499Y-38699986D01*
X112537500Y-38699973D01*
X112537500Y-38250000D01*
X110212501Y-38250000D01*
X110212501Y-38699986D01*
X110222994Y-38802697D01*
X110278141Y-38969119D01*
X110278143Y-38969124D01*
X110370184Y-39118345D01*
X110494154Y-39242315D01*
X110538975Y-39269961D01*
X110585699Y-39321909D01*
X110596922Y-39390872D01*
X110569078Y-39454954D01*
X110511010Y-39493810D01*
X110473878Y-39499500D01*
X28624000Y-39499500D01*
X28556961Y-39479815D01*
X28511206Y-39427011D01*
X28500000Y-39375500D01*
X28500000Y-37300013D01*
X110212500Y-37300013D01*
X110212500Y-37750000D01*
X111125000Y-37750000D01*
X111625000Y-37750000D01*
X112537499Y-37750000D01*
X112537499Y-37300028D01*
X112537498Y-37300013D01*
X112527005Y-37197302D01*
X112471858Y-37030880D01*
X112471856Y-37030875D01*
X112379815Y-36881654D01*
X112255845Y-36757684D01*
X112106624Y-36665643D01*
X112106619Y-36665641D01*
X111940197Y-36610494D01*
X111940190Y-36610493D01*
X111837486Y-36600000D01*
X111625000Y-36600000D01*
X111625000Y-37750000D01*
X111125000Y-37750000D01*
X111125000Y-36600000D01*
X110912529Y-36600000D01*
X110912512Y-36600001D01*
X110809802Y-36610494D01*
X110643380Y-36665641D01*
X110643375Y-36665643D01*
X110494154Y-36757684D01*
X110370184Y-36881654D01*
X110278143Y-37030875D01*
X110278141Y-37030880D01*
X110222994Y-37197302D01*
X110222993Y-37197309D01*
X110212500Y-37300013D01*
X28500000Y-37300013D01*
X28500000Y-34199986D01*
X110212501Y-34199986D01*
X110222994Y-34302697D01*
X110278141Y-34469119D01*
X110278143Y-34469124D01*
X110370184Y-34618345D01*
X110494154Y-34742315D01*
X110643375Y-34834356D01*
X110643380Y-34834358D01*
X110809802Y-34889505D01*
X110809809Y-34889506D01*
X110912519Y-34899999D01*
X111124999Y-34899999D01*
X111625000Y-34899999D01*
X111837472Y-34899999D01*
X111837486Y-34899998D01*
X111940197Y-34889505D01*
X112106619Y-34834358D01*
X112106624Y-34834356D01*
X112255845Y-34742315D01*
X112379815Y-34618345D01*
X112471856Y-34469124D01*
X112471858Y-34469119D01*
X112527005Y-34302697D01*
X112527006Y-34302690D01*
X112537499Y-34199986D01*
X112537500Y-34199973D01*
X112537500Y-33750000D01*
X111625000Y-33750000D01*
X111625000Y-34899999D01*
X111124999Y-34899999D01*
X111125000Y-34899998D01*
X111125000Y-33750000D01*
X110212501Y-33750000D01*
X110212501Y-34199986D01*
X28500000Y-34199986D01*
X28500000Y-32800013D01*
X110212500Y-32800013D01*
X110212500Y-33250000D01*
X111125000Y-33250000D01*
X111625000Y-33250000D01*
X112537499Y-33250000D01*
X112537499Y-32800028D01*
X112537498Y-32800013D01*
X112527005Y-32697302D01*
X112471858Y-32530880D01*
X112471856Y-32530875D01*
X112379815Y-32381654D01*
X112255845Y-32257684D01*
X112106624Y-32165643D01*
X112106619Y-32165641D01*
X111940197Y-32110494D01*
X111940190Y-32110493D01*
X111837486Y-32100000D01*
X111625000Y-32100000D01*
X111625000Y-33250000D01*
X111125000Y-33250000D01*
X111125000Y-32100000D01*
X110912529Y-32100000D01*
X110912512Y-32100001D01*
X110809802Y-32110494D01*
X110643380Y-32165641D01*
X110643375Y-32165643D01*
X110494154Y-32257684D01*
X110370184Y-32381654D01*
X110278143Y-32530875D01*
X110278141Y-32530880D01*
X110222994Y-32697302D01*
X110222993Y-32697309D01*
X110212500Y-32800013D01*
X28500000Y-32800013D01*
X28500000Y-31624500D01*
X28519685Y-31557461D01*
X28572489Y-31511706D01*
X28624000Y-31500500D01*
X115568059Y-31500500D01*
X115635098Y-31520185D01*
G37*
%TD.AperFunction*%
%TA.AperFunction,Conductor*%
G36*
X125229343Y-35109144D02*
G01*
X125259330Y-35115668D01*
X125264345Y-35119422D01*
X125266942Y-35120185D01*
X125287584Y-35136819D01*
X125463181Y-35312416D01*
X125496666Y-35373739D01*
X125499500Y-35400097D01*
X125499500Y-36047870D01*
X125499501Y-36047876D01*
X125505908Y-36107483D01*
X125556202Y-36242328D01*
X125556206Y-36242335D01*
X125642452Y-36357544D01*
X125642455Y-36357547D01*
X125757664Y-36443793D01*
X125757671Y-36443797D01*
X125892517Y-36494091D01*
X125892516Y-36494091D01*
X125899444Y-36494835D01*
X125952127Y-36500500D01*
X127047872Y-36500499D01*
X127107483Y-36494091D01*
X127232167Y-36447587D01*
X127301859Y-36442603D01*
X127363182Y-36476088D01*
X127396666Y-36537411D01*
X127399500Y-36563769D01*
X127399500Y-36936763D01*
X127379815Y-37003802D01*
X127327011Y-37049557D01*
X127257853Y-37059501D01*
X127232168Y-37052945D01*
X127107382Y-37006403D01*
X127107372Y-37006401D01*
X127047844Y-37000000D01*
X126750000Y-37000000D01*
X126750000Y-39000000D01*
X127047828Y-39000000D01*
X127047844Y-38999999D01*
X127107372Y-38993598D01*
X127107379Y-38993596D01*
X127232167Y-38947054D01*
X127301858Y-38942070D01*
X127363182Y-38975555D01*
X127396666Y-39036878D01*
X127399500Y-39063236D01*
X127399500Y-39375500D01*
X127379815Y-39442539D01*
X127327011Y-39488294D01*
X127275500Y-39499500D01*
X120615021Y-39499500D01*
X120547982Y-39479815D01*
X120502227Y-39427011D01*
X120492283Y-39357853D01*
X120509481Y-39310405D01*
X120534814Y-39269334D01*
X120589999Y-39102797D01*
X120600500Y-39000009D01*
X120600500Y-38547844D01*
X125500000Y-38547844D01*
X125506401Y-38607372D01*
X125506403Y-38607379D01*
X125556645Y-38742086D01*
X125556649Y-38742093D01*
X125642809Y-38857187D01*
X125642812Y-38857190D01*
X125757906Y-38943350D01*
X125757913Y-38943354D01*
X125892620Y-38993596D01*
X125892627Y-38993598D01*
X125952155Y-38999999D01*
X125952172Y-39000000D01*
X126250000Y-39000000D01*
X126250000Y-38250000D01*
X125500000Y-38250000D01*
X125500000Y-38547844D01*
X120600500Y-38547844D01*
X120600499Y-37999992D01*
X120589999Y-37897203D01*
X120534814Y-37730666D01*
X120442712Y-37581344D01*
X120318656Y-37457288D01*
X120310334Y-37452155D01*
X125500000Y-37452155D01*
X125500000Y-37750000D01*
X126250000Y-37750000D01*
X126250000Y-37000000D01*
X125952155Y-37000000D01*
X125892627Y-37006401D01*
X125892620Y-37006403D01*
X125757913Y-37056645D01*
X125757906Y-37056649D01*
X125642812Y-37142809D01*
X125642809Y-37142812D01*
X125556649Y-37257906D01*
X125556645Y-37257913D01*
X125506403Y-37392620D01*
X125506401Y-37392627D01*
X125500000Y-37452155D01*
X120310334Y-37452155D01*
X120190451Y-37378211D01*
X120169336Y-37365187D01*
X120169331Y-37365185D01*
X120163530Y-37363262D01*
X120038644Y-37321879D01*
X120027345Y-37314875D01*
X120017739Y-37312741D01*
X120001829Y-37299058D01*
X119989579Y-37291464D01*
X119981958Y-37283775D01*
X119980520Y-37281284D01*
X119868716Y-37169480D01*
X119868713Y-37169478D01*
X119180944Y-36481709D01*
X119147459Y-36420386D01*
X119152443Y-36350694D01*
X119194315Y-36294761D01*
X119259779Y-36270344D01*
X119279848Y-36270537D01*
X119328958Y-36275000D01*
X119750000Y-36275000D01*
X120250000Y-36275000D01*
X120671043Y-36275000D01*
X120737792Y-36268934D01*
X120891396Y-36221070D01*
X121029080Y-36137836D01*
X121142836Y-36024080D01*
X121226072Y-35886392D01*
X121273932Y-35732802D01*
X121273935Y-35732792D01*
X121276914Y-35700000D01*
X120250000Y-35700000D01*
X120250000Y-36275000D01*
X119750000Y-36275000D01*
X119750000Y-35449499D01*
X119769685Y-35382460D01*
X119822489Y-35336705D01*
X119873997Y-35325499D01*
X120671090Y-35325499D01*
X120671097Y-35325499D01*
X120737882Y-35319431D01*
X120737885Y-35319430D01*
X120737887Y-35319430D01*
X120891602Y-35271531D01*
X120980346Y-35217882D01*
X121044496Y-35200000D01*
X121276915Y-35200000D01*
X121290055Y-35185610D01*
X121293696Y-35167176D01*
X121342143Y-35116830D01*
X121403651Y-35100500D01*
X125199903Y-35100500D01*
X125229343Y-35109144D01*
G37*
%TD.AperFunction*%
%TA.AperFunction,Conductor*%
G36*
X127363182Y-33976088D02*
G01*
X127396666Y-34037411D01*
X127399500Y-34063769D01*
X127399500Y-34436230D01*
X127379815Y-34503269D01*
X127327011Y-34549024D01*
X127257853Y-34558968D01*
X127232168Y-34552412D01*
X127107485Y-34505909D01*
X127107483Y-34505908D01*
X127047883Y-34499501D01*
X127047881Y-34499500D01*
X127047873Y-34499500D01*
X127047865Y-34499500D01*
X126400098Y-34499500D01*
X126333059Y-34479815D01*
X126312417Y-34463181D01*
X126061416Y-34212180D01*
X126027931Y-34150857D01*
X126032915Y-34081165D01*
X126074787Y-34025232D01*
X126140251Y-34000815D01*
X126149074Y-34000499D01*
X127047872Y-34000499D01*
X127107483Y-33994091D01*
X127232167Y-33947587D01*
X127301859Y-33942603D01*
X127363182Y-33976088D01*
G37*
%TD.AperFunction*%
%TA.AperFunction,Conductor*%
G36*
X125225520Y-32720185D02*
G01*
X125246162Y-32736819D01*
X125463181Y-32953838D01*
X125496666Y-33015161D01*
X125499500Y-33041519D01*
X125499500Y-33547870D01*
X125499501Y-33547876D01*
X125505908Y-33607483D01*
X125552412Y-33732166D01*
X125554600Y-33762768D01*
X125558969Y-33793141D01*
X125557070Y-33797299D01*
X125557396Y-33801858D01*
X125542690Y-33828789D01*
X125529946Y-33856698D01*
X125526101Y-33859168D01*
X125523911Y-33863181D01*
X125496983Y-33877883D01*
X125471170Y-33894475D01*
X125464963Y-33895367D01*
X125462587Y-33896665D01*
X125436235Y-33899499D01*
X125420943Y-33899499D01*
X125420940Y-33899499D01*
X125413336Y-33899500D01*
X125413335Y-33899499D01*
X125413331Y-33899500D01*
X121403651Y-33899500D01*
X121336612Y-33879815D01*
X121290857Y-33827011D01*
X121288394Y-33812570D01*
X121276914Y-33800000D01*
X121044496Y-33800000D01*
X120980346Y-33782117D01*
X120891602Y-33728469D01*
X120737887Y-33680570D01*
X120737885Y-33680569D01*
X120737883Y-33680569D01*
X120691117Y-33676319D01*
X120671091Y-33674500D01*
X120671088Y-33674500D01*
X120124000Y-33674500D01*
X120115314Y-33671949D01*
X120106353Y-33673238D01*
X120082312Y-33662259D01*
X120056961Y-33654815D01*
X120051033Y-33647974D01*
X120042797Y-33644213D01*
X120028507Y-33621978D01*
X120011206Y-33602011D01*
X120008918Y-33591496D01*
X120005023Y-33585435D01*
X120000000Y-33550500D01*
X120000000Y-33424000D01*
X120019685Y-33356961D01*
X120072489Y-33311206D01*
X120124000Y-33300000D01*
X121276915Y-33300000D01*
X121276914Y-33299999D01*
X121273935Y-33267207D01*
X121273932Y-33267197D01*
X121226072Y-33113607D01*
X121142836Y-32975919D01*
X121079098Y-32912181D01*
X121045613Y-32850858D01*
X121050597Y-32781166D01*
X121092469Y-32725233D01*
X121157933Y-32700816D01*
X121166779Y-32700500D01*
X125158481Y-32700500D01*
X125225520Y-32720185D01*
G37*
%TD.AperFunction*%
%TD*%
M02*
