%TF.GenerationSoftware,KiCad,Pcbnew,10.0.2*%
%TF.CreationDate,2026-06-01T16:57:47+09:00*%
%TF.ProjectId,RPM,52504d2e-6b69-4636-9164-5f7063625858,rev?*%
%TF.SameCoordinates,Original*%
%TF.FileFunction,Copper,L1,Top*%
%TF.FilePolarity,Positive*%
%FSLAX46Y46*%
G04 Gerber Fmt 4.6, Leading zero omitted, Abs format (unit mm)*
G04 Created by KiCad (PCBNEW 10.0.2) date 2026-06-01 16:57:47*
%MOMM*%
%LPD*%
G01*
G04 APERTURE LIST*
G04 Aperture macros list*
%AMRoundRect*
0 Rectangle with rounded corners*
0 $1 Rounding radius*
0 $2 $3 $4 $5 $6 $7 $8 $9 X,Y pos of 4 corners*
0 Add a 4 corners polygon primitive as box body*
4,1,4,$2,$3,$4,$5,$6,$7,$8,$9,$2,$3,0*
0 Add four circle primitives for the rounded corners*
1,1,$1+$1,$2,$3*
1,1,$1+$1,$4,$5*
1,1,$1+$1,$6,$7*
1,1,$1+$1,$8,$9*
0 Add four rect primitives between the rounded corners*
20,1,$1+$1,$2,$3,$4,$5,0*
20,1,$1+$1,$4,$5,$6,$7,0*
20,1,$1+$1,$6,$7,$8,$9,0*
20,1,$1+$1,$8,$9,$2,$3,0*%
G04 Aperture macros list end*
%TA.AperFunction,SMDPad,CuDef*%
%ADD10RoundRect,0.090000X0.660000X0.360000X-0.660000X0.360000X-0.660000X-0.360000X0.660000X-0.360000X0*%
%TD*%
%TA.AperFunction,ViaPad*%
%ADD11C,0.600000*%
%TD*%
%TA.AperFunction,Conductor*%
%ADD12C,0.400000*%
%TD*%
%TA.AperFunction,Conductor*%
%ADD13C,0.200000*%
%TD*%
G04 APERTURE END LIST*
D10*
%TO.P,D5,1,VDD_1*%
%TO.N,+5V*%
X92350000Y-36650000D03*
%TO.P,D5,2,DOUT_2*%
%TO.N,Net-(D5-DOUT)*%
X92350000Y-33350000D03*
%TO.P,D5,3,VSS_3*%
%TO.N,GND*%
X87450000Y-33350000D03*
%TO.P,D5,4,DIN_4*%
%TO.N,Net-(D4-DOUT)*%
X87450000Y-36650000D03*
%TD*%
%TO.P,D3,1,VDD_1*%
%TO.N,+5V*%
X108350000Y-36650000D03*
%TO.P,D3,2,DOUT_2*%
%TO.N,Net-(D3-DOUT)*%
X108350000Y-33350000D03*
%TO.P,D3,3,VSS_3*%
%TO.N,GND*%
X103450000Y-33350000D03*
%TO.P,D3,4,DIN_4*%
%TO.N,Net-(D2-DOUT)*%
X103450000Y-36650000D03*
%TD*%
%TO.P,D4,1,VDD_1*%
%TO.N,+5V*%
X100350000Y-36650000D03*
%TO.P,D4,2,DOUT_2*%
%TO.N,Net-(D4-DOUT)*%
X100350000Y-33350000D03*
%TO.P,D4,3,VSS_3*%
%TO.N,GND*%
X95450000Y-33350000D03*
%TO.P,D4,4,DIN_4*%
%TO.N,Net-(D3-DOUT)*%
X95450000Y-36650000D03*
%TD*%
%TO.P,D11,1,VDD_1*%
%TO.N,+5V*%
X44350000Y-36650000D03*
%TO.P,D11,2,DOUT_2*%
%TO.N,Net-(D11-DOUT)*%
X44350000Y-33350000D03*
%TO.P,D11,3,VSS_3*%
%TO.N,GND*%
X39450000Y-33350000D03*
%TO.P,D11,4,DIN_4*%
%TO.N,Net-(D10-DOUT)*%
X39450000Y-36650000D03*
%TD*%
%TO.P,D8,1,VDD_1*%
%TO.N,+5V*%
X68350000Y-36650000D03*
%TO.P,D8,2,DOUT_2*%
%TO.N,/D8_OUT*%
X68350000Y-33350000D03*
%TO.P,D8,3,VSS_3*%
%TO.N,GND*%
X63450000Y-33350000D03*
%TO.P,D8,4,DIN_4*%
%TO.N,Net-(D7-DOUT)*%
X63450000Y-36650000D03*
%TD*%
%TO.P,D12,1,VDD_1*%
%TO.N,+5V*%
X36350000Y-36650000D03*
%TO.P,D12,2,DOUT_2*%
%TO.N,unconnected-(D12-DOUT-Pad2)*%
X36350000Y-33350000D03*
%TO.P,D12,3,VSS_3*%
%TO.N,GND*%
X31450000Y-33350000D03*
%TO.P,D12,4,DIN_4*%
%TO.N,Net-(D11-DOUT)*%
X31450000Y-36650000D03*
%TD*%
%TO.P,D1,1,VDD_1*%
%TO.N,+5V*%
X124350000Y-36650000D03*
%TO.P,D1,2,DOUT_2*%
%TO.N,Net-(D1-DOUT)*%
X124350000Y-33350000D03*
%TO.P,D1,3,VSS_3*%
%TO.N,GND*%
X119450000Y-33350000D03*
%TO.P,D1,4,DIN_4*%
%TO.N,/LED_Control*%
X119450000Y-36650000D03*
%TD*%
%TO.P,D9,1,VDD_1*%
%TO.N,+5V*%
X60350000Y-36650000D03*
%TO.P,D9,2,DOUT_2*%
%TO.N,Net-(D10-DIN)*%
X60350000Y-33350000D03*
%TO.P,D9,3,VSS_3*%
%TO.N,GND*%
X55450000Y-33350000D03*
%TO.P,D9,4,DIN_4*%
%TO.N,/D8_OUT*%
X55450000Y-36650000D03*
%TD*%
%TO.P,D10,1,VDD_1*%
%TO.N,+5V*%
X52350000Y-36650000D03*
%TO.P,D10,2,DOUT_2*%
%TO.N,Net-(D10-DOUT)*%
X52350000Y-33350000D03*
%TO.P,D10,3,VSS_3*%
%TO.N,GND*%
X47450000Y-33350000D03*
%TO.P,D10,4,DIN_4*%
%TO.N,Net-(D10-DIN)*%
X47450000Y-36650000D03*
%TD*%
%TO.P,D7,1,VDD_1*%
%TO.N,+5V*%
X76350000Y-36650000D03*
%TO.P,D7,2,DOUT_2*%
%TO.N,Net-(D7-DOUT)*%
X76350000Y-33350000D03*
%TO.P,D7,3,VSS_3*%
%TO.N,GND*%
X71450000Y-33350000D03*
%TO.P,D7,4,DIN_4*%
%TO.N,Net-(D6-DOUT)*%
X71450000Y-36650000D03*
%TD*%
%TO.P,D2,1,VDD_1*%
%TO.N,+5V*%
X116350000Y-36650000D03*
%TO.P,D2,2,DOUT_2*%
%TO.N,Net-(D2-DOUT)*%
X116350000Y-33350000D03*
%TO.P,D2,3,VSS_3*%
%TO.N,GND*%
X111450000Y-33350000D03*
%TO.P,D2,4,DIN_4*%
%TO.N,Net-(D1-DOUT)*%
X111450000Y-36650000D03*
%TD*%
%TO.P,D6,1,VDD_1*%
%TO.N,+5V*%
X84350000Y-36650000D03*
%TO.P,D6,2,DOUT_2*%
%TO.N,Net-(D6-DOUT)*%
X84350000Y-33350000D03*
%TO.P,D6,3,VSS_3*%
%TO.N,GND*%
X79450000Y-33350000D03*
%TO.P,D6,4,DIN_4*%
%TO.N,Net-(D5-DOUT)*%
X79450000Y-36650000D03*
%TD*%
D11*
%TO.N,+5V*%
X115500000Y-39000000D03*
X116250000Y-32250000D03*
%TO.N,GND*%
X110000000Y-35500000D03*
X125000000Y-39000000D03*
X106000000Y-36000000D03*
X110000000Y-32000000D03*
X106500000Y-38000000D03*
X99000000Y-38000000D03*
X122000000Y-33500000D03*
%TO.N,/LED_Control*%
X116500000Y-38000000D03*
%TD*%
%TO.N,+5V*%
D12*
X70700000Y-39000000D02*
X63000000Y-39000000D01*
X115500000Y-37500000D02*
X116350000Y-36650000D01*
X96500000Y-39000000D02*
X88000000Y-39000000D01*
X38700000Y-39000000D02*
X36350000Y-36650000D01*
X110700000Y-39000000D02*
X102700000Y-39000000D01*
X78700000Y-39000000D02*
X70700000Y-39000000D01*
X115500000Y-39000000D02*
X110700000Y-39000000D01*
X124415458Y-31700000D02*
X125500000Y-32784542D01*
X115500000Y-39000000D02*
X115500000Y-37500000D01*
X46700000Y-39000000D02*
X38700000Y-39000000D01*
X62700000Y-39000000D02*
X60350000Y-36650000D01*
X96500000Y-39000000D02*
X96084542Y-39000000D01*
X102700000Y-39000000D02*
X100350000Y-36650000D01*
X78700000Y-39000000D02*
X76350000Y-36650000D01*
X102700000Y-39000000D02*
X96500000Y-39000000D01*
X125500000Y-35500000D02*
X124350000Y-36650000D01*
X116250000Y-32250000D02*
X116800000Y-31700000D01*
X70700000Y-39000000D02*
X68350000Y-36650000D01*
X116800000Y-31700000D02*
X124415458Y-31700000D01*
X93734542Y-36650000D02*
X92350000Y-36650000D01*
X46700000Y-39000000D02*
X44350000Y-36650000D01*
X63000000Y-39000000D02*
X54700000Y-39000000D01*
X110700000Y-39000000D02*
X108350000Y-36650000D01*
X54700000Y-39000000D02*
X52350000Y-36650000D01*
X125500000Y-32784542D02*
X125500000Y-35500000D01*
X54700000Y-39000000D02*
X46700000Y-39000000D01*
X85650000Y-36650000D02*
X84350000Y-36650000D01*
X88000000Y-39000000D02*
X78700000Y-39000000D01*
X88000000Y-39000000D02*
X85650000Y-36650000D01*
X96084542Y-39000000D02*
X93734542Y-36650000D01*
X63000000Y-39000000D02*
X62700000Y-39000000D01*
%TO.N,Net-(D5-DOUT)*%
D13*
X90700000Y-35000000D02*
X81100000Y-35000000D01*
X92350000Y-33350000D02*
X90700000Y-35000000D01*
X81100000Y-35000000D02*
X79450000Y-36650000D01*
%TO.N,Net-(D4-DOUT)*%
X100350000Y-33350000D02*
X97024036Y-33350000D01*
X94474036Y-35900000D02*
X88200000Y-35900000D01*
X97024036Y-33350000D02*
X94474036Y-35900000D01*
X88200000Y-35900000D02*
X87450000Y-36650000D01*
%TO.N,Net-(D3-DOUT)*%
X107600000Y-34100000D02*
X98000000Y-34100000D01*
X98000000Y-34100000D02*
X95450000Y-36650000D01*
X108350000Y-33350000D02*
X107600000Y-34100000D01*
%TO.N,Net-(D2-DOUT)*%
X112374036Y-34000000D02*
X112274036Y-34100000D01*
X110525964Y-34000000D02*
X109274036Y-34000000D01*
X109274036Y-34000000D02*
X109174036Y-34100000D01*
X115700000Y-34000000D02*
X112374036Y-34000000D01*
X116350000Y-33350000D02*
X115700000Y-34000000D01*
X108165686Y-34100000D02*
X107765685Y-34500000D01*
X109174036Y-34100000D02*
X108165686Y-34100000D01*
X110625964Y-34100000D02*
X110525964Y-34000000D01*
X112274036Y-34100000D02*
X110625964Y-34100000D01*
X105600000Y-34500000D02*
X103450000Y-36650000D01*
X107765685Y-34500000D02*
X105600000Y-34500000D01*
%TO.N,Net-(D11-DOUT)*%
X44350000Y-33350000D02*
X43600000Y-34100000D01*
X43600000Y-34100000D02*
X34000000Y-34100000D01*
X34000000Y-34100000D02*
X31450000Y-36650000D01*
%TO.N,GND*%
D12*
X119450000Y-33350000D02*
X121850000Y-33350000D01*
D13*
X121850000Y-33350000D02*
X122000000Y-33500000D01*
D12*
X117800000Y-35000000D02*
X110500000Y-35000000D01*
X110500000Y-35000000D02*
X110000000Y-35500000D01*
X119450000Y-33350000D02*
X117800000Y-35000000D01*
%TO.N,Net-(D10-DOUT)*%
D13*
X52350000Y-33350000D02*
X49024036Y-33350000D01*
X46474036Y-35900000D02*
X40200000Y-35900000D01*
X40200000Y-35900000D02*
X39450000Y-36650000D01*
X49024036Y-33350000D02*
X46474036Y-35900000D01*
%TO.N,/D8_OUT*%
X65024036Y-33350000D02*
X62474036Y-35900000D01*
X56200000Y-35900000D02*
X55450000Y-36650000D01*
X68350000Y-33350000D02*
X65024036Y-33350000D01*
X62474036Y-35900000D02*
X56200000Y-35900000D01*
%TO.N,Net-(D7-DOUT)*%
X66000000Y-34100000D02*
X63450000Y-36650000D01*
X76350000Y-33350000D02*
X75600000Y-34100000D01*
X75600000Y-34100000D02*
X66000000Y-34100000D01*
%TO.N,Net-(D1-DOUT)*%
X112200000Y-35900000D02*
X111450000Y-36650000D01*
X124350000Y-33350000D02*
X121800000Y-35900000D01*
X121800000Y-35900000D02*
X112200000Y-35900000D01*
%TO.N,/LED_Control*%
X119450000Y-36970000D02*
X119450000Y-36650000D01*
X118100000Y-38000000D02*
X116500000Y-38000000D01*
X119450000Y-36650000D02*
X118100000Y-38000000D01*
%TO.N,Net-(D10-DIN)*%
X60350000Y-33350000D02*
X59600000Y-34100000D01*
X50000000Y-34100000D02*
X47450000Y-36650000D01*
X59600000Y-34100000D02*
X50000000Y-34100000D01*
%TO.N,Net-(D6-DOUT)*%
X73500000Y-34600000D02*
X71450000Y-36650000D01*
X83100000Y-34600000D02*
X73500000Y-34600000D01*
X84350000Y-33350000D02*
X83100000Y-34600000D01*
%TD*%
%TA.AperFunction,Conductor*%
%TO.N,GND*%
G36*
X115635098Y-31520185D02*
G01*
X115680853Y-31572989D01*
X115690797Y-31642147D01*
X115661772Y-31705703D01*
X115655740Y-31712181D01*
X115628213Y-31739707D01*
X115628210Y-31739711D01*
X115540609Y-31870814D01*
X115540602Y-31870827D01*
X115480264Y-32016498D01*
X115480261Y-32016510D01*
X115449500Y-32171153D01*
X115449500Y-32328843D01*
X115452197Y-32342401D01*
X115445970Y-32411993D01*
X115403108Y-32467171D01*
X115392589Y-32473976D01*
X115392208Y-32474195D01*
X115268851Y-32568851D01*
X115174198Y-32692205D01*
X115114699Y-32835848D01*
X115114698Y-32835850D01*
X115099500Y-32951298D01*
X115099501Y-33275500D01*
X115079817Y-33342539D01*
X115027013Y-33388294D01*
X114975501Y-33399500D01*
X112294976Y-33399500D01*
X112254055Y-33410464D01*
X112254055Y-33410465D01*
X112216787Y-33420451D01*
X112142250Y-33440423D01*
X112142249Y-33440424D01*
X112068702Y-33482887D01*
X112006702Y-33499500D01*
X110893298Y-33499500D01*
X110877810Y-33495350D01*
X110864064Y-33496005D01*
X110831298Y-33482887D01*
X110819369Y-33476000D01*
X110788404Y-33458122D01*
X110788403Y-33458121D01*
X110761414Y-33442539D01*
X110757749Y-33440423D01*
X110757748Y-33440422D01*
X110757747Y-33440422D01*
X110701845Y-33425443D01*
X110605021Y-33399499D01*
X110446907Y-33399499D01*
X110439311Y-33399499D01*
X110439295Y-33399500D01*
X109724500Y-33399500D01*
X109657461Y-33379815D01*
X109611706Y-33327011D01*
X109600500Y-33275500D01*
X109600499Y-32951329D01*
X110200000Y-32951329D01*
X110200000Y-33100000D01*
X111200000Y-33100000D01*
X111700000Y-33100000D01*
X112700000Y-33100000D01*
X112700000Y-32951329D01*
X112684814Y-32835980D01*
X112684812Y-32835975D01*
X112625366Y-32692458D01*
X112625366Y-32692457D01*
X112530792Y-32569207D01*
X112407541Y-32474633D01*
X112264024Y-32415187D01*
X112264019Y-32415185D01*
X112148671Y-32400000D01*
X111700000Y-32400000D01*
X111700000Y-33100000D01*
X111200000Y-33100000D01*
X111200000Y-32400000D01*
X110751329Y-32400000D01*
X110635980Y-32415185D01*
X110635975Y-32415187D01*
X110492458Y-32474633D01*
X110492457Y-32474633D01*
X110369207Y-32569207D01*
X110274633Y-32692457D01*
X110274633Y-32692458D01*
X110215187Y-32835975D01*
X110215185Y-32835980D01*
X110200000Y-32951329D01*
X109600499Y-32951329D01*
X109600499Y-32951296D01*
X109585303Y-32835857D01*
X109585301Y-32835850D01*
X109585301Y-32835849D01*
X109525800Y-32692202D01*
X109431149Y-32568851D01*
X109307798Y-32474200D01*
X109307794Y-32474198D01*
X109164151Y-32414699D01*
X109164149Y-32414698D01*
X109048701Y-32399500D01*
X107651296Y-32399500D01*
X107535857Y-32414696D01*
X107535848Y-32414699D01*
X107392205Y-32474198D01*
X107392202Y-32474199D01*
X107392202Y-32474200D01*
X107303652Y-32542147D01*
X107268851Y-32568851D01*
X107174198Y-32692205D01*
X107114699Y-32835848D01*
X107114698Y-32835850D01*
X107099500Y-32951298D01*
X107099501Y-33375500D01*
X107079817Y-33442539D01*
X107027013Y-33488294D01*
X106975501Y-33499500D01*
X101724500Y-33499500D01*
X101657461Y-33479815D01*
X101611706Y-33427011D01*
X101600500Y-33375500D01*
X101600499Y-32951329D01*
X102200000Y-32951329D01*
X102200000Y-33100000D01*
X103200000Y-33100000D01*
X103700000Y-33100000D01*
X104700000Y-33100000D01*
X104700000Y-32951329D01*
X104684814Y-32835980D01*
X104684812Y-32835975D01*
X104625366Y-32692458D01*
X104625366Y-32692457D01*
X104530792Y-32569207D01*
X104407541Y-32474633D01*
X104264024Y-32415187D01*
X104264019Y-32415185D01*
X104148671Y-32400000D01*
X103700000Y-32400000D01*
X103700000Y-33100000D01*
X103200000Y-33100000D01*
X103200000Y-32400000D01*
X102751329Y-32400000D01*
X102635980Y-32415185D01*
X102635975Y-32415187D01*
X102492458Y-32474633D01*
X102492457Y-32474633D01*
X102369207Y-32569207D01*
X102274633Y-32692457D01*
X102274633Y-32692458D01*
X102215187Y-32835975D01*
X102215185Y-32835980D01*
X102200000Y-32951329D01*
X101600499Y-32951329D01*
X101600499Y-32951296D01*
X101585303Y-32835857D01*
X101585301Y-32835850D01*
X101585301Y-32835849D01*
X101525800Y-32692202D01*
X101431149Y-32568851D01*
X101307798Y-32474200D01*
X101307794Y-32474198D01*
X101164151Y-32414699D01*
X101164149Y-32414698D01*
X101048701Y-32399500D01*
X99651296Y-32399500D01*
X99535857Y-32414696D01*
X99535848Y-32414699D01*
X99392205Y-32474198D01*
X99392202Y-32474199D01*
X99392202Y-32474200D01*
X99268851Y-32568851D01*
X99174200Y-32692202D01*
X99174199Y-32692204D01*
X99169253Y-32698650D01*
X99167017Y-32696934D01*
X99126358Y-32735711D01*
X99069528Y-32749500D01*
X97110706Y-32749500D01*
X97110690Y-32749499D01*
X97103094Y-32749499D01*
X96944979Y-32749499D01*
X96792252Y-32790423D01*
X96792250Y-32790424D01*
X96784402Y-32792527D01*
X96783539Y-32789309D01*
X96729400Y-32795071D01*
X96666955Y-32763727D01*
X96636989Y-32720518D01*
X96625365Y-32692457D01*
X96530792Y-32569207D01*
X96407541Y-32474633D01*
X96264024Y-32415187D01*
X96264019Y-32415185D01*
X96148671Y-32400000D01*
X95700000Y-32400000D01*
X95700000Y-33226000D01*
X95680315Y-33293039D01*
X95627511Y-33338794D01*
X95576000Y-33350000D01*
X95450000Y-33350000D01*
X95450000Y-33476000D01*
X95430315Y-33543039D01*
X95377511Y-33588794D01*
X95326000Y-33600000D01*
X94200000Y-33600000D01*
X94200000Y-33748670D01*
X94215185Y-33864019D01*
X94215187Y-33864024D01*
X94274633Y-34007541D01*
X94274633Y-34007542D01*
X94369207Y-34130792D01*
X94492458Y-34225366D01*
X94635975Y-34284812D01*
X94635980Y-34284814D01*
X94751329Y-34300000D01*
X94925439Y-34300000D01*
X94992478Y-34319685D01*
X95038233Y-34372489D01*
X95048177Y-34441647D01*
X95019152Y-34505203D01*
X95013120Y-34511681D01*
X94261620Y-35263181D01*
X94200297Y-35296666D01*
X94173939Y-35299500D01*
X91549097Y-35299500D01*
X91482058Y-35279815D01*
X91436303Y-35227011D01*
X91426359Y-35157853D01*
X91455384Y-35094297D01*
X91461416Y-35087819D01*
X92212416Y-34336818D01*
X92273739Y-34303333D01*
X92300097Y-34300499D01*
X93048703Y-34300499D01*
X93164142Y-34285303D01*
X93164146Y-34285301D01*
X93164151Y-34285301D01*
X93307798Y-34225800D01*
X93431149Y-34131149D01*
X93525800Y-34007798D01*
X93585301Y-33864151D01*
X93600500Y-33748701D01*
X93600499Y-32951329D01*
X94200000Y-32951329D01*
X94200000Y-33100000D01*
X95200000Y-33100000D01*
X95200000Y-32400000D01*
X94751329Y-32400000D01*
X94635980Y-32415185D01*
X94635975Y-32415187D01*
X94492458Y-32474633D01*
X94492457Y-32474633D01*
X94369207Y-32569207D01*
X94274633Y-32692457D01*
X94274633Y-32692458D01*
X94215187Y-32835975D01*
X94215185Y-32835980D01*
X94200000Y-32951329D01*
X93600499Y-32951329D01*
X93600499Y-32951300D01*
X93600499Y-32951298D01*
X93600499Y-32951296D01*
X93585303Y-32835857D01*
X93585301Y-32835850D01*
X93585301Y-32835849D01*
X93525800Y-32692202D01*
X93431149Y-32568851D01*
X93307798Y-32474200D01*
X93307794Y-32474198D01*
X93164151Y-32414699D01*
X93164149Y-32414698D01*
X93048701Y-32399500D01*
X91651296Y-32399500D01*
X91535857Y-32414696D01*
X91535848Y-32414699D01*
X91392205Y-32474198D01*
X91392202Y-32474199D01*
X91392202Y-32474200D01*
X91303652Y-32542147D01*
X91268851Y-32568851D01*
X91174198Y-32692205D01*
X91114699Y-32835848D01*
X91114698Y-32835850D01*
X91099500Y-32951298D01*
X91099500Y-33699901D01*
X91079815Y-33766940D01*
X91063181Y-33787582D01*
X90487584Y-34363181D01*
X90426261Y-34396666D01*
X90399903Y-34399500D01*
X88545899Y-34399500D01*
X88478860Y-34379815D01*
X88433105Y-34327011D01*
X88423161Y-34257853D01*
X88452186Y-34194297D01*
X88470413Y-34177124D01*
X88530791Y-34130794D01*
X88625366Y-34007542D01*
X88625366Y-34007541D01*
X88684812Y-33864024D01*
X88684814Y-33864019D01*
X88700000Y-33748670D01*
X88700000Y-33600000D01*
X86200000Y-33600000D01*
X86200000Y-33748670D01*
X86215185Y-33864019D01*
X86215187Y-33864024D01*
X86274633Y-34007541D01*
X86274633Y-34007542D01*
X86369208Y-34130794D01*
X86429587Y-34177124D01*
X86470790Y-34233552D01*
X86474945Y-34303298D01*
X86440733Y-34364218D01*
X86379015Y-34396971D01*
X86354101Y-34399500D01*
X85446719Y-34399500D01*
X85379680Y-34379815D01*
X85333925Y-34327011D01*
X85323981Y-34257853D01*
X85353006Y-34194297D01*
X85371225Y-34177130D01*
X85431149Y-34131149D01*
X85525800Y-34007798D01*
X85585301Y-33864151D01*
X85600500Y-33748701D01*
X85600499Y-32951329D01*
X86200000Y-32951329D01*
X86200000Y-33100000D01*
X87200000Y-33100000D01*
X87700000Y-33100000D01*
X88700000Y-33100000D01*
X88700000Y-32951329D01*
X88684814Y-32835980D01*
X88684812Y-32835975D01*
X88625366Y-32692458D01*
X88625366Y-32692457D01*
X88530792Y-32569207D01*
X88407541Y-32474633D01*
X88264024Y-32415187D01*
X88264019Y-32415185D01*
X88148671Y-32400000D01*
X87700000Y-32400000D01*
X87700000Y-33100000D01*
X87200000Y-33100000D01*
X87200000Y-32400000D01*
X86751329Y-32400000D01*
X86635980Y-32415185D01*
X86635975Y-32415187D01*
X86492458Y-32474633D01*
X86492457Y-32474633D01*
X86369207Y-32569207D01*
X86274633Y-32692457D01*
X86274633Y-32692458D01*
X86215187Y-32835975D01*
X86215185Y-32835980D01*
X86200000Y-32951329D01*
X85600499Y-32951329D01*
X85600499Y-32951300D01*
X85600499Y-32951298D01*
X85600499Y-32951296D01*
X85585303Y-32835857D01*
X85585301Y-32835850D01*
X85585301Y-32835849D01*
X85525800Y-32692202D01*
X85431149Y-32568851D01*
X85307798Y-32474200D01*
X85307794Y-32474198D01*
X85164151Y-32414699D01*
X85164149Y-32414698D01*
X85048701Y-32399500D01*
X83651296Y-32399500D01*
X83535857Y-32414696D01*
X83535848Y-32414699D01*
X83392205Y-32474198D01*
X83392202Y-32474199D01*
X83392202Y-32474200D01*
X83303652Y-32542147D01*
X83268851Y-32568851D01*
X83174198Y-32692205D01*
X83114699Y-32835848D01*
X83114698Y-32835850D01*
X83099500Y-32951298D01*
X83099500Y-33699901D01*
X83090856Y-33729337D01*
X83084333Y-33759327D01*
X83080577Y-33764344D01*
X83079815Y-33766940D01*
X83063181Y-33787582D01*
X82887582Y-33963182D01*
X82826262Y-33996666D01*
X82799903Y-33999500D01*
X80808372Y-33999500D01*
X80741333Y-33979815D01*
X80695578Y-33927011D01*
X80685433Y-33859314D01*
X80700000Y-33748669D01*
X80700000Y-33600000D01*
X78200000Y-33600000D01*
X78200000Y-33748669D01*
X78214567Y-33859314D01*
X78203802Y-33928350D01*
X78157422Y-33980606D01*
X78091628Y-33999500D01*
X77708877Y-33999500D01*
X77641838Y-33979815D01*
X77596083Y-33927011D01*
X77585938Y-33859315D01*
X77595381Y-33787582D01*
X77600500Y-33748701D01*
X77600499Y-32951329D01*
X78200000Y-32951329D01*
X78200000Y-33100000D01*
X79200000Y-33100000D01*
X79700000Y-33100000D01*
X80700000Y-33100000D01*
X80700000Y-32951329D01*
X80684814Y-32835980D01*
X80684812Y-32835975D01*
X80625366Y-32692458D01*
X80625366Y-32692457D01*
X80530792Y-32569207D01*
X80407541Y-32474633D01*
X80264024Y-32415187D01*
X80264019Y-32415185D01*
X80148671Y-32400000D01*
X79700000Y-32400000D01*
X79700000Y-33100000D01*
X79200000Y-33100000D01*
X79200000Y-32400000D01*
X78751329Y-32400000D01*
X78635980Y-32415185D01*
X78635975Y-32415187D01*
X78492458Y-32474633D01*
X78492457Y-32474633D01*
X78369207Y-32569207D01*
X78274633Y-32692457D01*
X78274633Y-32692458D01*
X78215187Y-32835975D01*
X78215185Y-32835980D01*
X78200000Y-32951329D01*
X77600499Y-32951329D01*
X77600499Y-32951300D01*
X77600499Y-32951298D01*
X77600499Y-32951296D01*
X77585303Y-32835857D01*
X77585301Y-32835850D01*
X77585301Y-32835849D01*
X77525800Y-32692202D01*
X77431149Y-32568851D01*
X77307798Y-32474200D01*
X77307794Y-32474198D01*
X77164151Y-32414699D01*
X77164149Y-32414698D01*
X77048701Y-32399500D01*
X75651296Y-32399500D01*
X75535857Y-32414696D01*
X75535848Y-32414699D01*
X75392205Y-32474198D01*
X75392202Y-32474199D01*
X75392202Y-32474200D01*
X75303652Y-32542147D01*
X75268851Y-32568851D01*
X75174198Y-32692205D01*
X75114699Y-32835848D01*
X75114698Y-32835850D01*
X75099500Y-32951298D01*
X75099501Y-33375500D01*
X75079817Y-33442539D01*
X75027013Y-33488294D01*
X74975501Y-33499500D01*
X69724500Y-33499500D01*
X69657461Y-33479815D01*
X69611706Y-33427011D01*
X69600500Y-33375500D01*
X69600499Y-32951329D01*
X70200000Y-32951329D01*
X70200000Y-33100000D01*
X71200000Y-33100000D01*
X71700000Y-33100000D01*
X72700000Y-33100000D01*
X72700000Y-32951329D01*
X72684814Y-32835980D01*
X72684812Y-32835975D01*
X72625366Y-32692458D01*
X72625366Y-32692457D01*
X72530792Y-32569207D01*
X72407541Y-32474633D01*
X72264024Y-32415187D01*
X72264019Y-32415185D01*
X72148671Y-32400000D01*
X71700000Y-32400000D01*
X71700000Y-33100000D01*
X71200000Y-33100000D01*
X71200000Y-32400000D01*
X70751329Y-32400000D01*
X70635980Y-32415185D01*
X70635975Y-32415187D01*
X70492458Y-32474633D01*
X70492457Y-32474633D01*
X70369207Y-32569207D01*
X70274633Y-32692457D01*
X70274633Y-32692458D01*
X70215187Y-32835975D01*
X70215185Y-32835980D01*
X70200000Y-32951329D01*
X69600499Y-32951329D01*
X69600499Y-32951296D01*
X69585303Y-32835857D01*
X69585301Y-32835850D01*
X69585301Y-32835849D01*
X69525800Y-32692202D01*
X69431149Y-32568851D01*
X69307798Y-32474200D01*
X69307794Y-32474198D01*
X69164151Y-32414699D01*
X69164149Y-32414698D01*
X69048701Y-32399500D01*
X67651296Y-32399500D01*
X67535857Y-32414696D01*
X67535848Y-32414699D01*
X67392205Y-32474198D01*
X67392202Y-32474199D01*
X67392202Y-32474200D01*
X67268851Y-32568851D01*
X67174200Y-32692202D01*
X67174199Y-32692204D01*
X67169253Y-32698650D01*
X67167017Y-32696934D01*
X67126358Y-32735711D01*
X67069528Y-32749500D01*
X65110706Y-32749500D01*
X65110690Y-32749499D01*
X65103094Y-32749499D01*
X64944979Y-32749499D01*
X64792252Y-32790423D01*
X64792250Y-32790424D01*
X64784402Y-32792527D01*
X64783539Y-32789309D01*
X64729400Y-32795071D01*
X64666955Y-32763727D01*
X64636989Y-32720518D01*
X64625365Y-32692457D01*
X64530792Y-32569207D01*
X64407541Y-32474633D01*
X64264024Y-32415187D01*
X64264019Y-32415185D01*
X64148671Y-32400000D01*
X63700000Y-32400000D01*
X63700000Y-33226000D01*
X63680315Y-33293039D01*
X63627511Y-33338794D01*
X63576000Y-33350000D01*
X63450000Y-33350000D01*
X63450000Y-33476000D01*
X63430315Y-33543039D01*
X63377511Y-33588794D01*
X63326000Y-33600000D01*
X62200000Y-33600000D01*
X62200000Y-33748670D01*
X62215185Y-33864019D01*
X62215187Y-33864024D01*
X62274633Y-34007541D01*
X62274633Y-34007542D01*
X62369207Y-34130792D01*
X62492458Y-34225366D01*
X62635975Y-34284812D01*
X62635980Y-34284814D01*
X62751329Y-34300000D01*
X62925439Y-34300000D01*
X62992478Y-34319685D01*
X63038233Y-34372489D01*
X63048177Y-34441647D01*
X63019152Y-34505203D01*
X63013120Y-34511681D01*
X62261620Y-35263181D01*
X62200297Y-35296666D01*
X62173939Y-35299500D01*
X56120943Y-35299500D01*
X55968214Y-35340423D01*
X55919213Y-35368715D01*
X55919211Y-35368715D01*
X55831290Y-35419475D01*
X55831282Y-35419481D01*
X55719480Y-35531283D01*
X55719480Y-35531284D01*
X55719478Y-35531286D01*
X55650264Y-35600500D01*
X55587582Y-35663182D01*
X55526259Y-35696666D01*
X55499901Y-35699500D01*
X54751296Y-35699500D01*
X54635857Y-35714696D01*
X54635848Y-35714699D01*
X54492205Y-35774198D01*
X54492202Y-35774199D01*
X54492202Y-35774200D01*
X54368851Y-35868851D01*
X54286310Y-35976421D01*
X54274198Y-35992205D01*
X54214699Y-36135848D01*
X54214698Y-36135850D01*
X54199500Y-36251298D01*
X54199500Y-37048703D01*
X54214696Y-37164142D01*
X54214699Y-37164150D01*
X54230620Y-37202588D01*
X54238088Y-37272057D01*
X54206812Y-37334536D01*
X54146723Y-37370188D01*
X54076897Y-37367693D01*
X54028377Y-37337720D01*
X53636818Y-36946161D01*
X53603333Y-36884838D01*
X53600499Y-36858480D01*
X53600499Y-36251296D01*
X53585303Y-36135857D01*
X53585301Y-36135850D01*
X53585301Y-36135849D01*
X53525800Y-35992202D01*
X53431149Y-35868851D01*
X53307798Y-35774200D01*
X53307794Y-35774198D01*
X53164151Y-35714699D01*
X53164149Y-35714698D01*
X53048701Y-35699500D01*
X51651296Y-35699500D01*
X51535857Y-35714696D01*
X51535848Y-35714699D01*
X51392205Y-35774198D01*
X51392202Y-35774199D01*
X51392202Y-35774200D01*
X51268851Y-35868851D01*
X51186310Y-35976421D01*
X51174198Y-35992205D01*
X51114699Y-36135848D01*
X51114698Y-36135850D01*
X51099500Y-36251298D01*
X51099500Y-37048703D01*
X51114696Y-37164142D01*
X51114699Y-37164150D01*
X51114699Y-37164151D01*
X51174200Y-37307798D01*
X51268851Y-37431149D01*
X51392202Y-37525800D01*
X51535849Y-37585301D01*
X51651299Y-37600500D01*
X52258480Y-37600499D01*
X52325519Y-37620183D01*
X52346161Y-37636818D01*
X52797162Y-38087819D01*
X52830647Y-38149142D01*
X52825663Y-38218834D01*
X52783791Y-38274767D01*
X52718327Y-38299184D01*
X52709481Y-38299500D01*
X47041519Y-38299500D01*
X46974480Y-38279815D01*
X46953838Y-38263181D01*
X46462279Y-37771622D01*
X46428794Y-37710299D01*
X46433778Y-37640607D01*
X46475650Y-37584674D01*
X46541114Y-37560257D01*
X46597412Y-37569379D01*
X46635849Y-37585301D01*
X46751299Y-37600500D01*
X48148700Y-37600499D01*
X48148703Y-37600499D01*
X48264142Y-37585303D01*
X48264146Y-37585301D01*
X48264151Y-37585301D01*
X48407798Y-37525800D01*
X48531149Y-37431149D01*
X48625800Y-37307798D01*
X48685301Y-37164151D01*
X48700500Y-37048701D01*
X48700499Y-36300095D01*
X48720183Y-36233057D01*
X48736813Y-36212420D01*
X50212417Y-34736819D01*
X50273740Y-34703334D01*
X50300098Y-34700500D01*
X59513331Y-34700500D01*
X59513347Y-34700501D01*
X59520943Y-34700501D01*
X59679054Y-34700501D01*
X59679057Y-34700501D01*
X59831785Y-34659577D01*
X59881904Y-34630639D01*
X59968716Y-34580520D01*
X60080520Y-34468716D01*
X60080521Y-34468713D01*
X60212418Y-34336815D01*
X60273739Y-34303333D01*
X60300097Y-34300499D01*
X61048703Y-34300499D01*
X61164142Y-34285303D01*
X61164146Y-34285301D01*
X61164151Y-34285301D01*
X61307798Y-34225800D01*
X61431149Y-34131149D01*
X61525800Y-34007798D01*
X61585301Y-33864151D01*
X61600500Y-33748701D01*
X61600499Y-32951329D01*
X62200000Y-32951329D01*
X62200000Y-33100000D01*
X63200000Y-33100000D01*
X63200000Y-32400000D01*
X62751329Y-32400000D01*
X62635980Y-32415185D01*
X62635975Y-32415187D01*
X62492458Y-32474633D01*
X62492457Y-32474633D01*
X62369207Y-32569207D01*
X62274633Y-32692457D01*
X62274633Y-32692458D01*
X62215187Y-32835975D01*
X62215185Y-32835980D01*
X62200000Y-32951329D01*
X61600499Y-32951329D01*
X61600499Y-32951300D01*
X61600499Y-32951298D01*
X61600499Y-32951296D01*
X61585303Y-32835857D01*
X61585301Y-32835850D01*
X61585301Y-32835849D01*
X61525800Y-32692202D01*
X61431149Y-32568851D01*
X61307798Y-32474200D01*
X61307794Y-32474198D01*
X61164151Y-32414699D01*
X61164149Y-32414698D01*
X61048701Y-32399500D01*
X59651296Y-32399500D01*
X59535857Y-32414696D01*
X59535848Y-32414699D01*
X59392205Y-32474198D01*
X59392202Y-32474199D01*
X59392202Y-32474200D01*
X59303652Y-32542147D01*
X59268851Y-32568851D01*
X59174198Y-32692205D01*
X59114699Y-32835848D01*
X59114698Y-32835850D01*
X59099500Y-32951298D01*
X59099501Y-33375500D01*
X59079817Y-33442539D01*
X59027013Y-33488294D01*
X58975501Y-33499500D01*
X53724500Y-33499500D01*
X53657461Y-33479815D01*
X53611706Y-33427011D01*
X53600500Y-33375500D01*
X53600499Y-32951329D01*
X54200000Y-32951329D01*
X54200000Y-33100000D01*
X55200000Y-33100000D01*
X55700000Y-33100000D01*
X56700000Y-33100000D01*
X56700000Y-32951329D01*
X56684814Y-32835980D01*
X56684812Y-32835975D01*
X56625366Y-32692458D01*
X56625366Y-32692457D01*
X56530792Y-32569207D01*
X56407541Y-32474633D01*
X56264024Y-32415187D01*
X56264019Y-32415185D01*
X56148671Y-32400000D01*
X55700000Y-32400000D01*
X55700000Y-33100000D01*
X55200000Y-33100000D01*
X55200000Y-32400000D01*
X54751329Y-32400000D01*
X54635980Y-32415185D01*
X54635975Y-32415187D01*
X54492458Y-32474633D01*
X54492457Y-32474633D01*
X54369207Y-32569207D01*
X54274633Y-32692457D01*
X54274633Y-32692458D01*
X54215187Y-32835975D01*
X54215185Y-32835980D01*
X54200000Y-32951329D01*
X53600499Y-32951329D01*
X53600499Y-32951296D01*
X53585303Y-32835857D01*
X53585301Y-32835850D01*
X53585301Y-32835849D01*
X53525800Y-32692202D01*
X53431149Y-32568851D01*
X53307798Y-32474200D01*
X53307794Y-32474198D01*
X53164151Y-32414699D01*
X53164149Y-32414698D01*
X53048701Y-32399500D01*
X51651296Y-32399500D01*
X51535857Y-32414696D01*
X51535848Y-32414699D01*
X51392205Y-32474198D01*
X51392202Y-32474199D01*
X51392202Y-32474200D01*
X51268851Y-32568851D01*
X51174200Y-32692202D01*
X51174199Y-32692204D01*
X51169253Y-32698650D01*
X51167017Y-32696934D01*
X51126358Y-32735711D01*
X51069528Y-32749500D01*
X49110706Y-32749500D01*
X49110690Y-32749499D01*
X49103094Y-32749499D01*
X48944979Y-32749499D01*
X48792252Y-32790423D01*
X48792250Y-32790424D01*
X48784402Y-32792527D01*
X48783539Y-32789309D01*
X48729400Y-32795071D01*
X48666955Y-32763727D01*
X48636989Y-32720518D01*
X48625365Y-32692457D01*
X48530792Y-32569207D01*
X48407541Y-32474633D01*
X48264024Y-32415187D01*
X48264019Y-32415185D01*
X48148671Y-32400000D01*
X47700000Y-32400000D01*
X47700000Y-33226000D01*
X47680315Y-33293039D01*
X47627511Y-33338794D01*
X47576000Y-33350000D01*
X47450000Y-33350000D01*
X47450000Y-33476000D01*
X47430315Y-33543039D01*
X47377511Y-33588794D01*
X47326000Y-33600000D01*
X46200000Y-33600000D01*
X46200000Y-33748670D01*
X46215185Y-33864019D01*
X46215187Y-33864024D01*
X46274633Y-34007541D01*
X46274633Y-34007542D01*
X46369207Y-34130792D01*
X46492458Y-34225366D01*
X46635975Y-34284812D01*
X46635980Y-34284814D01*
X46751329Y-34300000D01*
X46925439Y-34300000D01*
X46992478Y-34319685D01*
X47038233Y-34372489D01*
X47048177Y-34441647D01*
X47019152Y-34505203D01*
X47013120Y-34511681D01*
X46261620Y-35263181D01*
X46200297Y-35296666D01*
X46173939Y-35299500D01*
X40120943Y-35299500D01*
X39968214Y-35340423D01*
X39919213Y-35368715D01*
X39919211Y-35368715D01*
X39831290Y-35419475D01*
X39831282Y-35419481D01*
X39719480Y-35531283D01*
X39719480Y-35531284D01*
X39719478Y-35531286D01*
X39650264Y-35600500D01*
X39587582Y-35663182D01*
X39526259Y-35696666D01*
X39499901Y-35699500D01*
X38751296Y-35699500D01*
X38635857Y-35714696D01*
X38635848Y-35714699D01*
X38492205Y-35774198D01*
X38492202Y-35774199D01*
X38492202Y-35774200D01*
X38368851Y-35868851D01*
X38286310Y-35976421D01*
X38274198Y-35992205D01*
X38214699Y-36135848D01*
X38214698Y-36135850D01*
X38199500Y-36251298D01*
X38199500Y-37048703D01*
X38214696Y-37164142D01*
X38214699Y-37164150D01*
X38230620Y-37202588D01*
X38238088Y-37272057D01*
X38206812Y-37334536D01*
X38146723Y-37370188D01*
X38076897Y-37367693D01*
X38028377Y-37337720D01*
X37636818Y-36946161D01*
X37603333Y-36884838D01*
X37600499Y-36858480D01*
X37600499Y-36251296D01*
X37585303Y-36135857D01*
X37585301Y-36135850D01*
X37585301Y-36135849D01*
X37525800Y-35992202D01*
X37431149Y-35868851D01*
X37307798Y-35774200D01*
X37307794Y-35774198D01*
X37164151Y-35714699D01*
X37164149Y-35714698D01*
X37048701Y-35699500D01*
X35651296Y-35699500D01*
X35535857Y-35714696D01*
X35535848Y-35714699D01*
X35392205Y-35774198D01*
X35392202Y-35774199D01*
X35392202Y-35774200D01*
X35268851Y-35868851D01*
X35186310Y-35976421D01*
X35174198Y-35992205D01*
X35114699Y-36135848D01*
X35114698Y-36135850D01*
X35099500Y-36251298D01*
X35099500Y-37048703D01*
X35114696Y-37164142D01*
X35114699Y-37164150D01*
X35114699Y-37164151D01*
X35174200Y-37307798D01*
X35268851Y-37431149D01*
X35392202Y-37525800D01*
X35535849Y-37585301D01*
X35651299Y-37600500D01*
X36258480Y-37600499D01*
X36325519Y-37620183D01*
X36346161Y-37636818D01*
X37997162Y-39287819D01*
X38030647Y-39349142D01*
X38025663Y-39418834D01*
X37983791Y-39474767D01*
X37918327Y-39499184D01*
X37909481Y-39499500D01*
X28624000Y-39499500D01*
X28556961Y-39479815D01*
X28511206Y-39427011D01*
X28500000Y-39375500D01*
X28500000Y-36251298D01*
X30199500Y-36251298D01*
X30199500Y-37048703D01*
X30214696Y-37164142D01*
X30214699Y-37164150D01*
X30214699Y-37164151D01*
X30274200Y-37307798D01*
X30368851Y-37431149D01*
X30492202Y-37525800D01*
X30635849Y-37585301D01*
X30751299Y-37600500D01*
X32148700Y-37600499D01*
X32148703Y-37600499D01*
X32264142Y-37585303D01*
X32264146Y-37585301D01*
X32264151Y-37585301D01*
X32407798Y-37525800D01*
X32531149Y-37431149D01*
X32625800Y-37307798D01*
X32685301Y-37164151D01*
X32700500Y-37048701D01*
X32700499Y-36300095D01*
X32720183Y-36233057D01*
X32736813Y-36212420D01*
X34212417Y-34736819D01*
X34273740Y-34703334D01*
X34300098Y-34700500D01*
X43513331Y-34700500D01*
X43513347Y-34700501D01*
X43520943Y-34700501D01*
X43679054Y-34700501D01*
X43679057Y-34700501D01*
X43831785Y-34659577D01*
X43881904Y-34630639D01*
X43968716Y-34580520D01*
X44080520Y-34468716D01*
X44080521Y-34468713D01*
X44212418Y-34336815D01*
X44273739Y-34303333D01*
X44300097Y-34300499D01*
X45048703Y-34300499D01*
X45164142Y-34285303D01*
X45164146Y-34285301D01*
X45164151Y-34285301D01*
X45307798Y-34225800D01*
X45431149Y-34131149D01*
X45525800Y-34007798D01*
X45585301Y-33864151D01*
X45600500Y-33748701D01*
X45600499Y-32951329D01*
X46200000Y-32951329D01*
X46200000Y-33100000D01*
X47200000Y-33100000D01*
X47200000Y-32400000D01*
X46751329Y-32400000D01*
X46635980Y-32415185D01*
X46635975Y-32415187D01*
X46492458Y-32474633D01*
X46492457Y-32474633D01*
X46369207Y-32569207D01*
X46274633Y-32692457D01*
X46274633Y-32692458D01*
X46215187Y-32835975D01*
X46215185Y-32835980D01*
X46200000Y-32951329D01*
X45600499Y-32951329D01*
X45600499Y-32951300D01*
X45600499Y-32951298D01*
X45600499Y-32951296D01*
X45585303Y-32835857D01*
X45585301Y-32835850D01*
X45585301Y-32835849D01*
X45525800Y-32692202D01*
X45431149Y-32568851D01*
X45307798Y-32474200D01*
X45307794Y-32474198D01*
X45164151Y-32414699D01*
X45164149Y-32414698D01*
X45048701Y-32399500D01*
X43651296Y-32399500D01*
X43535857Y-32414696D01*
X43535848Y-32414699D01*
X43392205Y-32474198D01*
X43392202Y-32474199D01*
X43392202Y-32474200D01*
X43303652Y-32542147D01*
X43268851Y-32568851D01*
X43174198Y-32692205D01*
X43114699Y-32835848D01*
X43114698Y-32835850D01*
X43099500Y-32951298D01*
X43099501Y-33375500D01*
X43079817Y-33442539D01*
X43027013Y-33488294D01*
X42975501Y-33499500D01*
X37724500Y-33499500D01*
X37657461Y-33479815D01*
X37611706Y-33427011D01*
X37600500Y-33375500D01*
X37600499Y-32951329D01*
X38200000Y-32951329D01*
X38200000Y-33100000D01*
X39200000Y-33100000D01*
X39700000Y-33100000D01*
X40700000Y-33100000D01*
X40700000Y-32951329D01*
X40684814Y-32835980D01*
X40684812Y-32835975D01*
X40625366Y-32692458D01*
X40625366Y-32692457D01*
X40530792Y-32569207D01*
X40407541Y-32474633D01*
X40264024Y-32415187D01*
X40264019Y-32415185D01*
X40148671Y-32400000D01*
X39700000Y-32400000D01*
X39700000Y-33100000D01*
X39200000Y-33100000D01*
X39200000Y-32400000D01*
X38751329Y-32400000D01*
X38635980Y-32415185D01*
X38635975Y-32415187D01*
X38492458Y-32474633D01*
X38492457Y-32474633D01*
X38369207Y-32569207D01*
X38274633Y-32692457D01*
X38274633Y-32692458D01*
X38215187Y-32835975D01*
X38215185Y-32835980D01*
X38200000Y-32951329D01*
X37600499Y-32951329D01*
X37600499Y-32951296D01*
X37585303Y-32835857D01*
X37585301Y-32835850D01*
X37585301Y-32835849D01*
X37525800Y-32692202D01*
X37431149Y-32568851D01*
X37307798Y-32474200D01*
X37307794Y-32474198D01*
X37164151Y-32414699D01*
X37164149Y-32414698D01*
X37048701Y-32399500D01*
X35651296Y-32399500D01*
X35535857Y-32414696D01*
X35535848Y-32414699D01*
X35392205Y-32474198D01*
X35392202Y-32474199D01*
X35392202Y-32474200D01*
X35303652Y-32542147D01*
X35268851Y-32568851D01*
X35174198Y-32692205D01*
X35114699Y-32835848D01*
X35114698Y-32835850D01*
X35099500Y-32951298D01*
X35099501Y-33375500D01*
X35079817Y-33442539D01*
X35027013Y-33488294D01*
X34975501Y-33499500D01*
X34086670Y-33499500D01*
X34086654Y-33499499D01*
X34079058Y-33499499D01*
X33920943Y-33499499D01*
X33844579Y-33519961D01*
X33768214Y-33540423D01*
X33768209Y-33540426D01*
X33631290Y-33619475D01*
X33631282Y-33619481D01*
X31587582Y-35663181D01*
X31526259Y-35696666D01*
X31499901Y-35699500D01*
X30751296Y-35699500D01*
X30635857Y-35714696D01*
X30635848Y-35714699D01*
X30492205Y-35774198D01*
X30492202Y-35774199D01*
X30492202Y-35774200D01*
X30368851Y-35868851D01*
X30286310Y-35976421D01*
X30274198Y-35992205D01*
X30214699Y-36135848D01*
X30214698Y-36135850D01*
X30199500Y-36251298D01*
X28500000Y-36251298D01*
X28500000Y-33748670D01*
X30200000Y-33748670D01*
X30215185Y-33864019D01*
X30215187Y-33864024D01*
X30274633Y-34007541D01*
X30274633Y-34007542D01*
X30369207Y-34130792D01*
X30492458Y-34225366D01*
X30635975Y-34284812D01*
X30635980Y-34284814D01*
X30751329Y-34300000D01*
X31200000Y-34300000D01*
X31700000Y-34300000D01*
X32148671Y-34300000D01*
X32264019Y-34284814D01*
X32264024Y-34284812D01*
X32407541Y-34225366D01*
X32407542Y-34225366D01*
X32530792Y-34130792D01*
X32625366Y-34007542D01*
X32625366Y-34007541D01*
X32684812Y-33864024D01*
X32684814Y-33864019D01*
X32700000Y-33748670D01*
X32700000Y-33600000D01*
X31700000Y-33600000D01*
X31700000Y-34300000D01*
X31200000Y-34300000D01*
X31200000Y-33600000D01*
X30200000Y-33600000D01*
X30200000Y-33748670D01*
X28500000Y-33748670D01*
X28500000Y-32951329D01*
X30200000Y-32951329D01*
X30200000Y-33100000D01*
X31200000Y-33100000D01*
X31700000Y-33100000D01*
X32700000Y-33100000D01*
X32700000Y-32951329D01*
X32684814Y-32835980D01*
X32684812Y-32835975D01*
X32625366Y-32692458D01*
X32625366Y-32692457D01*
X32530792Y-32569207D01*
X32407541Y-32474633D01*
X32264024Y-32415187D01*
X32264019Y-32415185D01*
X32148671Y-32400000D01*
X31700000Y-32400000D01*
X31700000Y-33100000D01*
X31200000Y-33100000D01*
X31200000Y-32400000D01*
X30751329Y-32400000D01*
X30635980Y-32415185D01*
X30635975Y-32415187D01*
X30492458Y-32474633D01*
X30492457Y-32474633D01*
X30369207Y-32569207D01*
X30274633Y-32692457D01*
X30274633Y-32692458D01*
X30215187Y-32835975D01*
X30215185Y-32835980D01*
X30200000Y-32951329D01*
X28500000Y-32951329D01*
X28500000Y-31624500D01*
X28519685Y-31557461D01*
X28572489Y-31511706D01*
X28624000Y-31500500D01*
X115568059Y-31500500D01*
X115635098Y-31520185D01*
G37*
%TD.AperFunction*%
%TA.AperFunction,Conductor*%
G36*
X127342539Y-31520185D02*
G01*
X127388294Y-31572989D01*
X127399500Y-31624500D01*
X127399500Y-39375500D01*
X127379815Y-39442539D01*
X127327011Y-39488294D01*
X127275500Y-39499500D01*
X116345134Y-39499500D01*
X116278095Y-39479815D01*
X116232340Y-39427011D01*
X116222396Y-39357853D01*
X116230573Y-39328047D01*
X116247236Y-39287819D01*
X116269737Y-39233497D01*
X116300500Y-39078842D01*
X116300500Y-38924500D01*
X116320185Y-38857461D01*
X116372989Y-38811706D01*
X116424500Y-38800500D01*
X116578844Y-38800500D01*
X116578845Y-38800499D01*
X116733497Y-38769737D01*
X116879179Y-38709394D01*
X116879185Y-38709390D01*
X117010875Y-38621398D01*
X117077553Y-38600520D01*
X117079766Y-38600500D01*
X118013331Y-38600500D01*
X118013347Y-38600501D01*
X118020943Y-38600501D01*
X118179054Y-38600501D01*
X118179057Y-38600501D01*
X118331785Y-38559577D01*
X118381904Y-38530639D01*
X118468716Y-38480520D01*
X118580520Y-38368716D01*
X118580520Y-38368714D01*
X118590728Y-38358507D01*
X118590730Y-38358504D01*
X119312416Y-37636818D01*
X119373739Y-37603333D01*
X119400097Y-37600499D01*
X120148703Y-37600499D01*
X120264142Y-37585303D01*
X120264146Y-37585301D01*
X120264151Y-37585301D01*
X120407798Y-37525800D01*
X120531149Y-37431149D01*
X120625800Y-37307798D01*
X120685301Y-37164151D01*
X120700500Y-37048701D01*
X120700499Y-36624499D01*
X120720183Y-36557461D01*
X120772987Y-36511706D01*
X120824499Y-36500500D01*
X121713331Y-36500500D01*
X121713347Y-36500501D01*
X121720943Y-36500501D01*
X121879054Y-36500501D01*
X121879057Y-36500501D01*
X122031785Y-36459577D01*
X122103424Y-36418216D01*
X122168716Y-36380520D01*
X122280520Y-36268716D01*
X122280520Y-36268714D01*
X122290724Y-36258511D01*
X122290727Y-36258506D01*
X124212417Y-34336818D01*
X124273740Y-34303333D01*
X124300098Y-34300499D01*
X124675500Y-34300499D01*
X124742539Y-34320184D01*
X124788294Y-34372988D01*
X124799500Y-34424499D01*
X124799500Y-35158480D01*
X124779815Y-35225519D01*
X124763181Y-35246161D01*
X124346160Y-35663181D01*
X124284837Y-35696666D01*
X124258479Y-35699500D01*
X123651296Y-35699500D01*
X123535857Y-35714696D01*
X123535848Y-35714699D01*
X123392205Y-35774198D01*
X123392202Y-35774199D01*
X123392202Y-35774200D01*
X123268851Y-35868851D01*
X123186310Y-35976421D01*
X123174198Y-35992205D01*
X123114699Y-36135848D01*
X123114698Y-36135850D01*
X123099500Y-36251298D01*
X123099500Y-37048703D01*
X123114696Y-37164142D01*
X123114699Y-37164150D01*
X123114699Y-37164151D01*
X123174200Y-37307798D01*
X123268851Y-37431149D01*
X123392202Y-37525800D01*
X123535849Y-37585301D01*
X123651299Y-37600500D01*
X125048700Y-37600499D01*
X125048703Y-37600499D01*
X125164142Y-37585303D01*
X125164146Y-37585301D01*
X125164151Y-37585301D01*
X125307798Y-37525800D01*
X125431149Y-37431149D01*
X125525800Y-37307798D01*
X125585301Y-37164151D01*
X125600500Y-37048701D01*
X125600499Y-36441518D01*
X125620183Y-36374480D01*
X125636818Y-36353838D01*
X126044111Y-35946546D01*
X126044112Y-35946545D01*
X126044112Y-35946544D01*
X126044114Y-35946543D01*
X126120775Y-35831811D01*
X126173580Y-35704328D01*
X126188846Y-35627584D01*
X126200500Y-35568996D01*
X126200500Y-32715544D01*
X126196721Y-32696553D01*
X126196720Y-32696552D01*
X126196719Y-32696543D01*
X126173580Y-32580214D01*
X126157812Y-32542147D01*
X126120777Y-32452734D01*
X126044112Y-32337996D01*
X126044111Y-32337995D01*
X125418296Y-31712181D01*
X125384811Y-31650858D01*
X125389795Y-31581167D01*
X125431666Y-31525233D01*
X125497131Y-31500816D01*
X125505977Y-31500500D01*
X127275500Y-31500500D01*
X127342539Y-31520185D01*
G37*
%TD.AperFunction*%
%TA.AperFunction,Conductor*%
G36*
X104317942Y-34720185D02*
G01*
X104363697Y-34772989D01*
X104373641Y-34842147D01*
X104344616Y-34905703D01*
X104338584Y-34912181D01*
X103587582Y-35663181D01*
X103526259Y-35696666D01*
X103499901Y-35699500D01*
X102751296Y-35699500D01*
X102635857Y-35714696D01*
X102635848Y-35714699D01*
X102492205Y-35774198D01*
X102492202Y-35774199D01*
X102492202Y-35774200D01*
X102368851Y-35868851D01*
X102286310Y-35976421D01*
X102274198Y-35992205D01*
X102214699Y-36135848D01*
X102214698Y-36135850D01*
X102199500Y-36251298D01*
X102199500Y-37048703D01*
X102214696Y-37164142D01*
X102214699Y-37164150D01*
X102230620Y-37202588D01*
X102238088Y-37272057D01*
X102206812Y-37334536D01*
X102146723Y-37370188D01*
X102076897Y-37367693D01*
X102028377Y-37337720D01*
X101636818Y-36946161D01*
X101603333Y-36884838D01*
X101600499Y-36858480D01*
X101600499Y-36251296D01*
X101585303Y-36135857D01*
X101585301Y-36135850D01*
X101585301Y-36135849D01*
X101525800Y-35992202D01*
X101431149Y-35868851D01*
X101307798Y-35774200D01*
X101307794Y-35774198D01*
X101164151Y-35714699D01*
X101164149Y-35714698D01*
X101048701Y-35699500D01*
X99651296Y-35699500D01*
X99535857Y-35714696D01*
X99535848Y-35714699D01*
X99392205Y-35774198D01*
X99392202Y-35774199D01*
X99392202Y-35774200D01*
X99268851Y-35868851D01*
X99186310Y-35976421D01*
X99174198Y-35992205D01*
X99114699Y-36135848D01*
X99114698Y-36135850D01*
X99099500Y-36251298D01*
X99099500Y-37048703D01*
X99114696Y-37164142D01*
X99114699Y-37164150D01*
X99114699Y-37164151D01*
X99174200Y-37307798D01*
X99268851Y-37431149D01*
X99392202Y-37525800D01*
X99535849Y-37585301D01*
X99651299Y-37600500D01*
X100258480Y-37600499D01*
X100325519Y-37620183D01*
X100346161Y-37636818D01*
X100797162Y-38087819D01*
X100830647Y-38149142D01*
X100825663Y-38218834D01*
X100783791Y-38274767D01*
X100718327Y-38299184D01*
X100709481Y-38299500D01*
X96426061Y-38299500D01*
X96359022Y-38279815D01*
X96338380Y-38263181D01*
X95887379Y-37812180D01*
X95853894Y-37750857D01*
X95858878Y-37681165D01*
X95900750Y-37625232D01*
X95966214Y-37600815D01*
X95975060Y-37600499D01*
X96148703Y-37600499D01*
X96264142Y-37585303D01*
X96264146Y-37585301D01*
X96264151Y-37585301D01*
X96407798Y-37525800D01*
X96531149Y-37431149D01*
X96625800Y-37307798D01*
X96685301Y-37164151D01*
X96700500Y-37048701D01*
X96700499Y-36300095D01*
X96720183Y-36233057D01*
X96736813Y-36212420D01*
X98212417Y-34736819D01*
X98273740Y-34703334D01*
X98300098Y-34700500D01*
X104250903Y-34700500D01*
X104317942Y-34720185D01*
G37*
%TD.AperFunction*%
%TA.AperFunction,Conductor*%
G36*
X118260837Y-32404500D02*
G01*
X118275013Y-32403656D01*
X118293697Y-32414149D01*
X118314253Y-32420185D01*
X118323550Y-32430914D01*
X118335933Y-32437869D01*
X118345978Y-32456797D01*
X118360008Y-32472989D01*
X118362028Y-32487043D01*
X118368685Y-32499586D01*
X118366902Y-32520937D01*
X118369952Y-32542147D01*
X118363940Y-32556419D01*
X118362872Y-32569214D01*
X118345589Y-32599987D01*
X118274636Y-32692452D01*
X118274633Y-32692458D01*
X118215187Y-32835975D01*
X118215185Y-32835980D01*
X118200000Y-32951329D01*
X118200000Y-33100000D01*
X120700000Y-33100000D01*
X120700000Y-32951329D01*
X120684814Y-32835980D01*
X120684812Y-32835975D01*
X120625366Y-32692458D01*
X120625363Y-32692452D01*
X120554411Y-32599987D01*
X120529216Y-32534818D01*
X120543254Y-32466373D01*
X120592068Y-32416383D01*
X120652786Y-32400500D01*
X123146584Y-32400500D01*
X123213623Y-32420185D01*
X123259378Y-32472989D01*
X123269322Y-32542147D01*
X123244960Y-32599985D01*
X123204923Y-32652162D01*
X123174198Y-32692204D01*
X123114699Y-32835848D01*
X123114698Y-32835850D01*
X123099500Y-32951298D01*
X123099500Y-33699901D01*
X123079815Y-33766940D01*
X123063181Y-33787582D01*
X121587584Y-35263181D01*
X121526261Y-35296666D01*
X121499903Y-35299500D01*
X112120943Y-35299500D01*
X111968214Y-35340423D01*
X111919213Y-35368715D01*
X111919211Y-35368715D01*
X111831290Y-35419475D01*
X111831282Y-35419481D01*
X111719480Y-35531283D01*
X111719480Y-35531284D01*
X111719478Y-35531286D01*
X111650264Y-35600500D01*
X111587582Y-35663182D01*
X111526259Y-35696666D01*
X111499901Y-35699500D01*
X110751296Y-35699500D01*
X110635857Y-35714696D01*
X110635848Y-35714699D01*
X110492205Y-35774198D01*
X110492202Y-35774199D01*
X110492202Y-35774200D01*
X110368851Y-35868851D01*
X110286310Y-35976421D01*
X110274198Y-35992205D01*
X110214699Y-36135848D01*
X110214698Y-36135850D01*
X110199500Y-36251298D01*
X110199500Y-37048703D01*
X110214696Y-37164142D01*
X110214699Y-37164150D01*
X110230620Y-37202588D01*
X110238088Y-37272057D01*
X110206812Y-37334536D01*
X110146723Y-37370188D01*
X110076897Y-37367693D01*
X110028377Y-37337720D01*
X109636818Y-36946161D01*
X109603333Y-36884838D01*
X109600499Y-36858480D01*
X109600499Y-36251296D01*
X109585303Y-36135857D01*
X109585301Y-36135850D01*
X109585301Y-36135849D01*
X109525800Y-35992202D01*
X109431149Y-35868851D01*
X109307798Y-35774200D01*
X109307794Y-35774198D01*
X109164151Y-35714699D01*
X109164149Y-35714698D01*
X109048701Y-35699500D01*
X107651296Y-35699500D01*
X107535857Y-35714696D01*
X107535848Y-35714699D01*
X107392205Y-35774198D01*
X107392202Y-35774199D01*
X107392202Y-35774200D01*
X107268851Y-35868851D01*
X107186310Y-35976421D01*
X107174198Y-35992205D01*
X107114699Y-36135848D01*
X107114698Y-36135850D01*
X107099500Y-36251298D01*
X107099500Y-37048703D01*
X107114696Y-37164142D01*
X107114699Y-37164150D01*
X107114699Y-37164151D01*
X107174200Y-37307798D01*
X107268851Y-37431149D01*
X107392202Y-37525800D01*
X107535849Y-37585301D01*
X107651299Y-37600500D01*
X108258480Y-37600499D01*
X108325519Y-37620183D01*
X108346161Y-37636818D01*
X108797162Y-38087819D01*
X108830647Y-38149142D01*
X108825663Y-38218834D01*
X108783791Y-38274767D01*
X108718327Y-38299184D01*
X108709481Y-38299500D01*
X103041519Y-38299500D01*
X102974480Y-38279815D01*
X102953838Y-38263181D01*
X102462279Y-37771622D01*
X102428794Y-37710299D01*
X102433778Y-37640607D01*
X102475650Y-37584674D01*
X102541114Y-37560257D01*
X102597412Y-37569379D01*
X102635849Y-37585301D01*
X102751299Y-37600500D01*
X104148700Y-37600499D01*
X104148703Y-37600499D01*
X104264142Y-37585303D01*
X104264146Y-37585301D01*
X104264151Y-37585301D01*
X104407798Y-37525800D01*
X104531149Y-37431149D01*
X104625800Y-37307798D01*
X104685301Y-37164151D01*
X104700500Y-37048701D01*
X104700499Y-36300095D01*
X104720183Y-36233057D01*
X104736813Y-36212420D01*
X105812416Y-35136819D01*
X105873739Y-35103334D01*
X105900097Y-35100500D01*
X107686627Y-35100500D01*
X107844742Y-35100501D01*
X107997469Y-35059577D01*
X108008069Y-35053457D01*
X108134401Y-34980520D01*
X108246205Y-34868716D01*
X108246205Y-34868715D01*
X108263638Y-34851282D01*
X108263647Y-34851272D01*
X108378104Y-34736818D01*
X108439427Y-34703333D01*
X108465784Y-34700500D01*
X109087367Y-34700500D01*
X109087383Y-34700501D01*
X109094979Y-34700501D01*
X109253090Y-34700501D01*
X109253093Y-34700501D01*
X109405821Y-34659577D01*
X109405825Y-34659575D01*
X109415844Y-34653789D01*
X109455940Y-34630639D01*
X109467988Y-34623682D01*
X109479377Y-34617109D01*
X109479442Y-34617093D01*
X109541370Y-34600500D01*
X110258630Y-34600500D01*
X110320629Y-34617112D01*
X110394180Y-34659577D01*
X110505983Y-34689534D01*
X110546906Y-34700500D01*
X110546907Y-34700500D01*
X112187367Y-34700500D01*
X112187383Y-34700501D01*
X112194979Y-34700501D01*
X112353090Y-34700501D01*
X112353093Y-34700501D01*
X112505821Y-34659577D01*
X112505825Y-34659575D01*
X112515844Y-34653789D01*
X112555940Y-34630639D01*
X112567988Y-34623682D01*
X112579377Y-34617109D01*
X112579442Y-34617093D01*
X112641370Y-34600500D01*
X115613331Y-34600500D01*
X115613347Y-34600501D01*
X115620943Y-34600501D01*
X115779054Y-34600501D01*
X115779057Y-34600501D01*
X115931785Y-34559577D01*
X115981904Y-34530639D01*
X116068716Y-34480520D01*
X116180520Y-34368716D01*
X116180520Y-34368714D01*
X116190728Y-34358507D01*
X116190731Y-34358503D01*
X116212418Y-34336816D01*
X116273742Y-34303332D01*
X116300097Y-34300499D01*
X117048703Y-34300499D01*
X117164142Y-34285303D01*
X117164146Y-34285301D01*
X117164151Y-34285301D01*
X117307798Y-34225800D01*
X117431149Y-34131149D01*
X117525800Y-34007798D01*
X117585301Y-33864151D01*
X117600500Y-33748701D01*
X117600500Y-33748670D01*
X118200000Y-33748670D01*
X118215185Y-33864019D01*
X118215187Y-33864024D01*
X118274633Y-34007541D01*
X118274633Y-34007542D01*
X118369207Y-34130792D01*
X118492458Y-34225366D01*
X118635975Y-34284812D01*
X118635980Y-34284814D01*
X118751329Y-34300000D01*
X119200000Y-34300000D01*
X119700000Y-34300000D01*
X120148671Y-34300000D01*
X120264019Y-34284814D01*
X120264024Y-34284812D01*
X120407541Y-34225366D01*
X120407542Y-34225366D01*
X120530792Y-34130792D01*
X120625366Y-34007542D01*
X120625366Y-34007541D01*
X120684812Y-33864024D01*
X120684814Y-33864019D01*
X120700000Y-33748670D01*
X120700000Y-33600000D01*
X119700000Y-33600000D01*
X119700000Y-34300000D01*
X119200000Y-34300000D01*
X119200000Y-33600000D01*
X118200000Y-33600000D01*
X118200000Y-33748670D01*
X117600500Y-33748670D01*
X117600499Y-33350000D01*
X117600499Y-32951296D01*
X117585303Y-32835857D01*
X117585301Y-32835850D01*
X117585301Y-32835849D01*
X117527598Y-32696543D01*
X117525801Y-32692204D01*
X117525800Y-32692203D01*
X117525800Y-32692202D01*
X117455039Y-32599985D01*
X117429846Y-32534817D01*
X117443884Y-32466373D01*
X117492698Y-32416383D01*
X117553416Y-32400500D01*
X118247214Y-32400500D01*
X118260837Y-32404500D01*
G37*
%TD.AperFunction*%
%TD*%
M02*
