%TF.GenerationSoftware,KiCad,Pcbnew,10.0.2*%
%TF.CreationDate,2026-06-01T16:57:48+09:00*%
%TF.ProjectId,RPM,52504d2e-6b69-4636-9164-5f7063625858,rev?*%
%TF.SameCoordinates,Original*%
%TF.FileFunction,Legend,Bot*%
%TF.FilePolarity,Positive*%
%FSLAX46Y46*%
G04 Gerber Fmt 4.6, Leading zero omitted, Abs format (unit mm)*
G04 Created by KiCad (PCBNEW 10.0.2) date 2026-06-01 16:57:48*
%MOMM*%
%LPD*%
G01*
G04 APERTURE LIST*
%ADD10C,0.100000*%
%ADD11C,0.120000*%
G04 APERTURE END LIST*
D10*
X42196115Y-38372419D02*
X42196115Y-37372419D01*
X42196115Y-37372419D02*
X41624687Y-38372419D01*
X41624687Y-38372419D02*
X41624687Y-37372419D01*
X41196115Y-38324800D02*
X41053258Y-38372419D01*
X41053258Y-38372419D02*
X40815163Y-38372419D01*
X40815163Y-38372419D02*
X40719925Y-38324800D01*
X40719925Y-38324800D02*
X40672306Y-38277180D01*
X40672306Y-38277180D02*
X40624687Y-38181942D01*
X40624687Y-38181942D02*
X40624687Y-38086704D01*
X40624687Y-38086704D02*
X40672306Y-37991466D01*
X40672306Y-37991466D02*
X40719925Y-37943847D01*
X40719925Y-37943847D02*
X40815163Y-37896228D01*
X40815163Y-37896228D02*
X41005639Y-37848609D01*
X41005639Y-37848609D02*
X41100877Y-37800990D01*
X41100877Y-37800990D02*
X41148496Y-37753371D01*
X41148496Y-37753371D02*
X41196115Y-37658133D01*
X41196115Y-37658133D02*
X41196115Y-37562895D01*
X41196115Y-37562895D02*
X41148496Y-37467657D01*
X41148496Y-37467657D02*
X41100877Y-37420038D01*
X41100877Y-37420038D02*
X41005639Y-37372419D01*
X41005639Y-37372419D02*
X40767544Y-37372419D01*
X40767544Y-37372419D02*
X40624687Y-37420038D01*
X40243734Y-37467657D02*
X40196115Y-37420038D01*
X40196115Y-37420038D02*
X40100877Y-37372419D01*
X40100877Y-37372419D02*
X39862782Y-37372419D01*
X39862782Y-37372419D02*
X39767544Y-37420038D01*
X39767544Y-37420038D02*
X39719925Y-37467657D01*
X39719925Y-37467657D02*
X39672306Y-37562895D01*
X39672306Y-37562895D02*
X39672306Y-37658133D01*
X39672306Y-37658133D02*
X39719925Y-37800990D01*
X39719925Y-37800990D02*
X40291353Y-38372419D01*
X40291353Y-38372419D02*
X39672306Y-38372419D01*
X38815163Y-37372419D02*
X39005639Y-37372419D01*
X39005639Y-37372419D02*
X39100877Y-37420038D01*
X39100877Y-37420038D02*
X39148496Y-37467657D01*
X39148496Y-37467657D02*
X39243734Y-37610514D01*
X39243734Y-37610514D02*
X39291353Y-37800990D01*
X39291353Y-37800990D02*
X39291353Y-38181942D01*
X39291353Y-38181942D02*
X39243734Y-38277180D01*
X39243734Y-38277180D02*
X39196115Y-38324800D01*
X39196115Y-38324800D02*
X39100877Y-38372419D01*
X39100877Y-38372419D02*
X38910401Y-38372419D01*
X38910401Y-38372419D02*
X38815163Y-38324800D01*
X38815163Y-38324800D02*
X38767544Y-38277180D01*
X38767544Y-38277180D02*
X38719925Y-38181942D01*
X38719925Y-38181942D02*
X38719925Y-37943847D01*
X38719925Y-37943847D02*
X38767544Y-37848609D01*
X38767544Y-37848609D02*
X38815163Y-37800990D01*
X38815163Y-37800990D02*
X38910401Y-37753371D01*
X38910401Y-37753371D02*
X39100877Y-37753371D01*
X39100877Y-37753371D02*
X39196115Y-37800990D01*
X39196115Y-37800990D02*
X39243734Y-37848609D01*
X39243734Y-37848609D02*
X39291353Y-37943847D01*
X37958020Y-37848609D02*
X38291353Y-37848609D01*
X38291353Y-38372419D02*
X38291353Y-37372419D01*
X38291353Y-37372419D02*
X37815163Y-37372419D01*
X36719924Y-38324800D02*
X36577067Y-38372419D01*
X36577067Y-38372419D02*
X36338972Y-38372419D01*
X36338972Y-38372419D02*
X36243734Y-38324800D01*
X36243734Y-38324800D02*
X36196115Y-38277180D01*
X36196115Y-38277180D02*
X36148496Y-38181942D01*
X36148496Y-38181942D02*
X36148496Y-38086704D01*
X36148496Y-38086704D02*
X36196115Y-37991466D01*
X36196115Y-37991466D02*
X36243734Y-37943847D01*
X36243734Y-37943847D02*
X36338972Y-37896228D01*
X36338972Y-37896228D02*
X36529448Y-37848609D01*
X36529448Y-37848609D02*
X36624686Y-37800990D01*
X36624686Y-37800990D02*
X36672305Y-37753371D01*
X36672305Y-37753371D02*
X36719924Y-37658133D01*
X36719924Y-37658133D02*
X36719924Y-37562895D01*
X36719924Y-37562895D02*
X36672305Y-37467657D01*
X36672305Y-37467657D02*
X36624686Y-37420038D01*
X36624686Y-37420038D02*
X36529448Y-37372419D01*
X36529448Y-37372419D02*
X36291353Y-37372419D01*
X36291353Y-37372419D02*
X36148496Y-37420038D01*
X35719924Y-38372419D02*
X35719924Y-37372419D01*
X35291353Y-38372419D02*
X35291353Y-37848609D01*
X35291353Y-37848609D02*
X35338972Y-37753371D01*
X35338972Y-37753371D02*
X35434210Y-37705752D01*
X35434210Y-37705752D02*
X35577067Y-37705752D01*
X35577067Y-37705752D02*
X35672305Y-37753371D01*
X35672305Y-37753371D02*
X35719924Y-37800990D01*
X34815162Y-38372419D02*
X34815162Y-37705752D01*
X34815162Y-37372419D02*
X34862781Y-37420038D01*
X34862781Y-37420038D02*
X34815162Y-37467657D01*
X34815162Y-37467657D02*
X34767543Y-37420038D01*
X34767543Y-37420038D02*
X34815162Y-37372419D01*
X34815162Y-37372419D02*
X34815162Y-37467657D01*
X34481829Y-37705752D02*
X34100877Y-37705752D01*
X34338972Y-38372419D02*
X34338972Y-37515276D01*
X34338972Y-37515276D02*
X34291353Y-37420038D01*
X34291353Y-37420038D02*
X34196115Y-37372419D01*
X34196115Y-37372419D02*
X34100877Y-37372419D01*
X33910400Y-37705752D02*
X33529448Y-37705752D01*
X33767543Y-37372419D02*
X33767543Y-38229561D01*
X33767543Y-38229561D02*
X33719924Y-38324800D01*
X33719924Y-38324800D02*
X33624686Y-38372419D01*
X33624686Y-38372419D02*
X33529448Y-38372419D01*
X31958019Y-38372419D02*
X32434209Y-38372419D01*
X32434209Y-38372419D02*
X32434209Y-37372419D01*
X31624685Y-38372419D02*
X31624685Y-37705752D01*
X31624685Y-37372419D02*
X31672304Y-37420038D01*
X31672304Y-37420038D02*
X31624685Y-37467657D01*
X31624685Y-37467657D02*
X31577066Y-37420038D01*
X31577066Y-37420038D02*
X31624685Y-37372419D01*
X31624685Y-37372419D02*
X31624685Y-37467657D01*
X30719924Y-37705752D02*
X30719924Y-38515276D01*
X30719924Y-38515276D02*
X30767543Y-38610514D01*
X30767543Y-38610514D02*
X30815162Y-38658133D01*
X30815162Y-38658133D02*
X30910400Y-38705752D01*
X30910400Y-38705752D02*
X31053257Y-38705752D01*
X31053257Y-38705752D02*
X31148495Y-38658133D01*
X30719924Y-38324800D02*
X30815162Y-38372419D01*
X30815162Y-38372419D02*
X31005638Y-38372419D01*
X31005638Y-38372419D02*
X31100876Y-38324800D01*
X31100876Y-38324800D02*
X31148495Y-38277180D01*
X31148495Y-38277180D02*
X31196114Y-38181942D01*
X31196114Y-38181942D02*
X31196114Y-37896228D01*
X31196114Y-37896228D02*
X31148495Y-37800990D01*
X31148495Y-37800990D02*
X31100876Y-37753371D01*
X31100876Y-37753371D02*
X31005638Y-37705752D01*
X31005638Y-37705752D02*
X30815162Y-37705752D01*
X30815162Y-37705752D02*
X30719924Y-37753371D01*
X30243733Y-38372419D02*
X30243733Y-37372419D01*
X29815162Y-38372419D02*
X29815162Y-37848609D01*
X29815162Y-37848609D02*
X29862781Y-37753371D01*
X29862781Y-37753371D02*
X29958019Y-37705752D01*
X29958019Y-37705752D02*
X30100876Y-37705752D01*
X30100876Y-37705752D02*
X30196114Y-37753371D01*
X30196114Y-37753371D02*
X30243733Y-37800990D01*
X29481828Y-37705752D02*
X29100876Y-37705752D01*
X29338971Y-37372419D02*
X29338971Y-38229561D01*
X29338971Y-38229561D02*
X29291352Y-38324800D01*
X29291352Y-38324800D02*
X29196114Y-38372419D01*
X29196114Y-38372419D02*
X29100876Y-38372419D01*
X46838972Y-35872419D02*
X46267544Y-35872419D01*
X46553258Y-36872419D02*
X46553258Y-35872419D01*
X45934210Y-36348609D02*
X45600877Y-36348609D01*
X45458020Y-36872419D02*
X45934210Y-36872419D01*
X45934210Y-36872419D02*
X45934210Y-35872419D01*
X45934210Y-35872419D02*
X45458020Y-35872419D01*
X45077067Y-36586704D02*
X44600877Y-36586704D01*
X45172305Y-36872419D02*
X44838972Y-35872419D01*
X44838972Y-35872419D02*
X44505639Y-36872419D01*
X44172305Y-36872419D02*
X44172305Y-35872419D01*
X44172305Y-35872419D02*
X43838972Y-36586704D01*
X43838972Y-36586704D02*
X43505639Y-35872419D01*
X43505639Y-35872419D02*
X43505639Y-36872419D01*
X42267543Y-36872419D02*
X42267543Y-35872419D01*
X42267543Y-35872419D02*
X41696115Y-36872419D01*
X41696115Y-36872419D02*
X41696115Y-35872419D01*
X41267543Y-36824800D02*
X41124686Y-36872419D01*
X41124686Y-36872419D02*
X40886591Y-36872419D01*
X40886591Y-36872419D02*
X40791353Y-36824800D01*
X40791353Y-36824800D02*
X40743734Y-36777180D01*
X40743734Y-36777180D02*
X40696115Y-36681942D01*
X40696115Y-36681942D02*
X40696115Y-36586704D01*
X40696115Y-36586704D02*
X40743734Y-36491466D01*
X40743734Y-36491466D02*
X40791353Y-36443847D01*
X40791353Y-36443847D02*
X40886591Y-36396228D01*
X40886591Y-36396228D02*
X41077067Y-36348609D01*
X41077067Y-36348609D02*
X41172305Y-36300990D01*
X41172305Y-36300990D02*
X41219924Y-36253371D01*
X41219924Y-36253371D02*
X41267543Y-36158133D01*
X41267543Y-36158133D02*
X41267543Y-36062895D01*
X41267543Y-36062895D02*
X41219924Y-35967657D01*
X41219924Y-35967657D02*
X41172305Y-35920038D01*
X41172305Y-35920038D02*
X41077067Y-35872419D01*
X41077067Y-35872419D02*
X40838972Y-35872419D01*
X40838972Y-35872419D02*
X40696115Y-35920038D01*
X40315162Y-36824800D02*
X40172305Y-36872419D01*
X40172305Y-36872419D02*
X39934210Y-36872419D01*
X39934210Y-36872419D02*
X39838972Y-36824800D01*
X39838972Y-36824800D02*
X39791353Y-36777180D01*
X39791353Y-36777180D02*
X39743734Y-36681942D01*
X39743734Y-36681942D02*
X39743734Y-36586704D01*
X39743734Y-36586704D02*
X39791353Y-36491466D01*
X39791353Y-36491466D02*
X39838972Y-36443847D01*
X39838972Y-36443847D02*
X39934210Y-36396228D01*
X39934210Y-36396228D02*
X40124686Y-36348609D01*
X40124686Y-36348609D02*
X40219924Y-36300990D01*
X40219924Y-36300990D02*
X40267543Y-36253371D01*
X40267543Y-36253371D02*
X40315162Y-36158133D01*
X40315162Y-36158133D02*
X40315162Y-36062895D01*
X40315162Y-36062895D02*
X40267543Y-35967657D01*
X40267543Y-35967657D02*
X40219924Y-35920038D01*
X40219924Y-35920038D02*
X40124686Y-35872419D01*
X40124686Y-35872419D02*
X39886591Y-35872419D01*
X39886591Y-35872419D02*
X39743734Y-35920038D01*
X39315162Y-35872419D02*
X39315162Y-36681942D01*
X39315162Y-36681942D02*
X39267543Y-36777180D01*
X39267543Y-36777180D02*
X39219924Y-36824800D01*
X39219924Y-36824800D02*
X39124686Y-36872419D01*
X39124686Y-36872419D02*
X38934210Y-36872419D01*
X38934210Y-36872419D02*
X38838972Y-36824800D01*
X38838972Y-36824800D02*
X38791353Y-36777180D01*
X38791353Y-36777180D02*
X38743734Y-36681942D01*
X38743734Y-36681942D02*
X38743734Y-35872419D01*
X37696115Y-36872419D02*
X38029448Y-36396228D01*
X38267543Y-36872419D02*
X38267543Y-35872419D01*
X38267543Y-35872419D02*
X37886591Y-35872419D01*
X37886591Y-35872419D02*
X37791353Y-35920038D01*
X37791353Y-35920038D02*
X37743734Y-35967657D01*
X37743734Y-35967657D02*
X37696115Y-36062895D01*
X37696115Y-36062895D02*
X37696115Y-36205752D01*
X37696115Y-36205752D02*
X37743734Y-36300990D01*
X37743734Y-36300990D02*
X37791353Y-36348609D01*
X37791353Y-36348609D02*
X37886591Y-36396228D01*
X37886591Y-36396228D02*
X38267543Y-36396228D01*
X35934210Y-36872419D02*
X36267543Y-36396228D01*
X36505638Y-36872419D02*
X36505638Y-35872419D01*
X36505638Y-35872419D02*
X36124686Y-35872419D01*
X36124686Y-35872419D02*
X36029448Y-35920038D01*
X36029448Y-35920038D02*
X35981829Y-35967657D01*
X35981829Y-35967657D02*
X35934210Y-36062895D01*
X35934210Y-36062895D02*
X35934210Y-36205752D01*
X35934210Y-36205752D02*
X35981829Y-36300990D01*
X35981829Y-36300990D02*
X36029448Y-36348609D01*
X36029448Y-36348609D02*
X36124686Y-36396228D01*
X36124686Y-36396228D02*
X36505638Y-36396228D01*
X35553257Y-36586704D02*
X35077067Y-36586704D01*
X35648495Y-36872419D02*
X35315162Y-35872419D01*
X35315162Y-35872419D02*
X34981829Y-36872419D01*
X34077067Y-36777180D02*
X34124686Y-36824800D01*
X34124686Y-36824800D02*
X34267543Y-36872419D01*
X34267543Y-36872419D02*
X34362781Y-36872419D01*
X34362781Y-36872419D02*
X34505638Y-36824800D01*
X34505638Y-36824800D02*
X34600876Y-36729561D01*
X34600876Y-36729561D02*
X34648495Y-36634323D01*
X34648495Y-36634323D02*
X34696114Y-36443847D01*
X34696114Y-36443847D02*
X34696114Y-36300990D01*
X34696114Y-36300990D02*
X34648495Y-36110514D01*
X34648495Y-36110514D02*
X34600876Y-36015276D01*
X34600876Y-36015276D02*
X34505638Y-35920038D01*
X34505638Y-35920038D02*
X34362781Y-35872419D01*
X34362781Y-35872419D02*
X34267543Y-35872419D01*
X34267543Y-35872419D02*
X34124686Y-35920038D01*
X34124686Y-35920038D02*
X34077067Y-35967657D01*
X33648495Y-36872419D02*
X33648495Y-35872419D01*
X33172305Y-36872419D02*
X33172305Y-35872419D01*
X33172305Y-35872419D02*
X32600877Y-36872419D01*
X32600877Y-36872419D02*
X32600877Y-35872419D01*
X31600877Y-35920038D02*
X31696115Y-35872419D01*
X31696115Y-35872419D02*
X31838972Y-35872419D01*
X31838972Y-35872419D02*
X31981829Y-35920038D01*
X31981829Y-35920038D02*
X32077067Y-36015276D01*
X32077067Y-36015276D02*
X32124686Y-36110514D01*
X32124686Y-36110514D02*
X32172305Y-36300990D01*
X32172305Y-36300990D02*
X32172305Y-36443847D01*
X32172305Y-36443847D02*
X32124686Y-36634323D01*
X32124686Y-36634323D02*
X32077067Y-36729561D01*
X32077067Y-36729561D02*
X31981829Y-36824800D01*
X31981829Y-36824800D02*
X31838972Y-36872419D01*
X31838972Y-36872419D02*
X31743734Y-36872419D01*
X31743734Y-36872419D02*
X31600877Y-36824800D01*
X31600877Y-36824800D02*
X31553258Y-36777180D01*
X31553258Y-36777180D02*
X31553258Y-36443847D01*
X31553258Y-36443847D02*
X31743734Y-36443847D01*
X30362781Y-36348609D02*
X30029448Y-36348609D01*
X29886591Y-36872419D02*
X30362781Y-36872419D01*
X30362781Y-36872419D02*
X30362781Y-35872419D01*
X30362781Y-35872419D02*
X29886591Y-35872419D01*
X29458019Y-36348609D02*
X29124686Y-36348609D01*
X28981829Y-36872419D02*
X29458019Y-36872419D01*
X29458019Y-36872419D02*
X29458019Y-35872419D01*
X29458019Y-35872419D02*
X28981829Y-35872419D01*
X125196115Y-33191466D02*
X124434211Y-33191466D01*
X124815163Y-33572419D02*
X124815163Y-32810514D01*
X123481830Y-32572419D02*
X123958020Y-32572419D01*
X123958020Y-32572419D02*
X124005639Y-33048609D01*
X124005639Y-33048609D02*
X123958020Y-33000990D01*
X123958020Y-33000990D02*
X123862782Y-32953371D01*
X123862782Y-32953371D02*
X123624687Y-32953371D01*
X123624687Y-32953371D02*
X123529449Y-33000990D01*
X123529449Y-33000990D02*
X123481830Y-33048609D01*
X123481830Y-33048609D02*
X123434211Y-33143847D01*
X123434211Y-33143847D02*
X123434211Y-33381942D01*
X123434211Y-33381942D02*
X123481830Y-33477180D01*
X123481830Y-33477180D02*
X123529449Y-33524800D01*
X123529449Y-33524800D02*
X123624687Y-33572419D01*
X123624687Y-33572419D02*
X123862782Y-33572419D01*
X123862782Y-33572419D02*
X123958020Y-33524800D01*
X123958020Y-33524800D02*
X124005639Y-33477180D01*
X123148496Y-32572419D02*
X122815163Y-33572419D01*
X122815163Y-33572419D02*
X122481830Y-32572419D01*
X125243734Y-35824800D02*
X125100877Y-35872419D01*
X125100877Y-35872419D02*
X124862782Y-35872419D01*
X124862782Y-35872419D02*
X124767544Y-35824800D01*
X124767544Y-35824800D02*
X124719925Y-35777180D01*
X124719925Y-35777180D02*
X124672306Y-35681942D01*
X124672306Y-35681942D02*
X124672306Y-35586704D01*
X124672306Y-35586704D02*
X124719925Y-35491466D01*
X124719925Y-35491466D02*
X124767544Y-35443847D01*
X124767544Y-35443847D02*
X124862782Y-35396228D01*
X124862782Y-35396228D02*
X125053258Y-35348609D01*
X125053258Y-35348609D02*
X125148496Y-35300990D01*
X125148496Y-35300990D02*
X125196115Y-35253371D01*
X125196115Y-35253371D02*
X125243734Y-35158133D01*
X125243734Y-35158133D02*
X125243734Y-35062895D01*
X125243734Y-35062895D02*
X125196115Y-34967657D01*
X125196115Y-34967657D02*
X125148496Y-34920038D01*
X125148496Y-34920038D02*
X125053258Y-34872419D01*
X125053258Y-34872419D02*
X124815163Y-34872419D01*
X124815163Y-34872419D02*
X124672306Y-34920038D01*
X124243734Y-35872419D02*
X124243734Y-35205752D01*
X124243734Y-34872419D02*
X124291353Y-34920038D01*
X124291353Y-34920038D02*
X124243734Y-34967657D01*
X124243734Y-34967657D02*
X124196115Y-34920038D01*
X124196115Y-34920038D02*
X124243734Y-34872419D01*
X124243734Y-34872419D02*
X124243734Y-34967657D01*
X123338973Y-35205752D02*
X123338973Y-36015276D01*
X123338973Y-36015276D02*
X123386592Y-36110514D01*
X123386592Y-36110514D02*
X123434211Y-36158133D01*
X123434211Y-36158133D02*
X123529449Y-36205752D01*
X123529449Y-36205752D02*
X123672306Y-36205752D01*
X123672306Y-36205752D02*
X123767544Y-36158133D01*
X123338973Y-35824800D02*
X123434211Y-35872419D01*
X123434211Y-35872419D02*
X123624687Y-35872419D01*
X123624687Y-35872419D02*
X123719925Y-35824800D01*
X123719925Y-35824800D02*
X123767544Y-35777180D01*
X123767544Y-35777180D02*
X123815163Y-35681942D01*
X123815163Y-35681942D02*
X123815163Y-35396228D01*
X123815163Y-35396228D02*
X123767544Y-35300990D01*
X123767544Y-35300990D02*
X123719925Y-35253371D01*
X123719925Y-35253371D02*
X123624687Y-35205752D01*
X123624687Y-35205752D02*
X123434211Y-35205752D01*
X123434211Y-35205752D02*
X123338973Y-35253371D01*
X122862782Y-35205752D02*
X122862782Y-35872419D01*
X122862782Y-35300990D02*
X122815163Y-35253371D01*
X122815163Y-35253371D02*
X122719925Y-35205752D01*
X122719925Y-35205752D02*
X122577068Y-35205752D01*
X122577068Y-35205752D02*
X122481830Y-35253371D01*
X122481830Y-35253371D02*
X122434211Y-35348609D01*
X122434211Y-35348609D02*
X122434211Y-35872419D01*
X121529449Y-35872419D02*
X121529449Y-35348609D01*
X121529449Y-35348609D02*
X121577068Y-35253371D01*
X121577068Y-35253371D02*
X121672306Y-35205752D01*
X121672306Y-35205752D02*
X121862782Y-35205752D01*
X121862782Y-35205752D02*
X121958020Y-35253371D01*
X121529449Y-35824800D02*
X121624687Y-35872419D01*
X121624687Y-35872419D02*
X121862782Y-35872419D01*
X121862782Y-35872419D02*
X121958020Y-35824800D01*
X121958020Y-35824800D02*
X122005639Y-35729561D01*
X122005639Y-35729561D02*
X122005639Y-35634323D01*
X122005639Y-35634323D02*
X121958020Y-35539085D01*
X121958020Y-35539085D02*
X121862782Y-35491466D01*
X121862782Y-35491466D02*
X121624687Y-35491466D01*
X121624687Y-35491466D02*
X121529449Y-35443847D01*
X120910401Y-35872419D02*
X121005639Y-35824800D01*
X121005639Y-35824800D02*
X121053258Y-35729561D01*
X121053258Y-35729561D02*
X121053258Y-34872419D01*
X124672306Y-37420038D02*
X124767544Y-37372419D01*
X124767544Y-37372419D02*
X124910401Y-37372419D01*
X124910401Y-37372419D02*
X125053258Y-37420038D01*
X125053258Y-37420038D02*
X125148496Y-37515276D01*
X125148496Y-37515276D02*
X125196115Y-37610514D01*
X125196115Y-37610514D02*
X125243734Y-37800990D01*
X125243734Y-37800990D02*
X125243734Y-37943847D01*
X125243734Y-37943847D02*
X125196115Y-38134323D01*
X125196115Y-38134323D02*
X125148496Y-38229561D01*
X125148496Y-38229561D02*
X125053258Y-38324800D01*
X125053258Y-38324800D02*
X124910401Y-38372419D01*
X124910401Y-38372419D02*
X124815163Y-38372419D01*
X124815163Y-38372419D02*
X124672306Y-38324800D01*
X124672306Y-38324800D02*
X124624687Y-38277180D01*
X124624687Y-38277180D02*
X124624687Y-37943847D01*
X124624687Y-37943847D02*
X124815163Y-37943847D01*
X124196115Y-38372419D02*
X124196115Y-37372419D01*
X124196115Y-37372419D02*
X123624687Y-38372419D01*
X123624687Y-38372419D02*
X123624687Y-37372419D01*
X123148496Y-38372419D02*
X123148496Y-37372419D01*
X123148496Y-37372419D02*
X122910401Y-37372419D01*
X122910401Y-37372419D02*
X122767544Y-37420038D01*
X122767544Y-37420038D02*
X122672306Y-37515276D01*
X122672306Y-37515276D02*
X122624687Y-37610514D01*
X122624687Y-37610514D02*
X122577068Y-37800990D01*
X122577068Y-37800990D02*
X122577068Y-37943847D01*
X122577068Y-37943847D02*
X122624687Y-38134323D01*
X122624687Y-38134323D02*
X122672306Y-38229561D01*
X122672306Y-38229561D02*
X122767544Y-38324800D01*
X122767544Y-38324800D02*
X122910401Y-38372419D01*
X122910401Y-38372419D02*
X123148496Y-38372419D01*
%TO.C,R1*%
D11*
X118272936Y-37765000D02*
X118727064Y-37765000D01*
X118272936Y-39235000D02*
X118727064Y-39235000D01*
%TO.C,C2*%
X113648752Y-37090000D02*
X112226248Y-37090000D01*
X113648752Y-38910000D02*
X112226248Y-38910000D01*
%TO.C,REF\u002A\u002A*%
X125800000Y-37300000D02*
X125800000Y-38700000D01*
X125800000Y-38700000D02*
X127200000Y-38700000D01*
X127200000Y-37300000D02*
X125800000Y-37300000D01*
X127200000Y-38700000D02*
X127200000Y-37300000D01*
%TO.C,C1*%
X113648752Y-32590000D02*
X112226248Y-32590000D01*
X113648752Y-34410000D02*
X112226248Y-34410000D01*
%TO.C,REF\u002A\u002A*%
X125800000Y-32300000D02*
X125800000Y-33700000D01*
X125800000Y-33700000D02*
X127200000Y-33700000D01*
X127200000Y-32300000D02*
X125800000Y-32300000D01*
X127200000Y-33700000D02*
X127200000Y-32300000D01*
%TO.C,U1*%
X118550000Y-32890000D02*
X117750000Y-32890000D01*
X118550000Y-32890000D02*
X119350000Y-32890000D01*
X119550000Y-36110000D02*
X117750000Y-36110000D01*
X119850000Y-32940000D02*
X120090000Y-32610000D01*
X119610000Y-32610000D01*
X119850000Y-32940000D01*
G36*
X119850000Y-32940000D02*
G01*
X119610000Y-32610000D01*
X120090000Y-32610000D01*
X119850000Y-32940000D01*
G37*
%TO.C,REF\u002A\u002A*%
X125800000Y-34800000D02*
X125800000Y-36200000D01*
X125800000Y-36200000D02*
X127200000Y-36200000D01*
X127200000Y-34800000D02*
X125800000Y-34800000D01*
X127200000Y-36200000D02*
X127200000Y-34800000D01*
%TD*%
M02*
